<?xml version="1.0" encoding="UTF-8" standalone="no"?>
<!-- Created with Inkscape (http://www.inkscape.org/) -->

<svg
   xmlns:dc="http://purl.org/dc/elements/1.1/"
   xmlns:cc="http://creativecommons.org/ns#"
   xmlns:rdf="http://www.w3.org/1999/02/22-rdf-syntax-ns#"
   xmlns:svg="http://www.w3.org/2000/svg"
   xmlns="http://www.w3.org/2000/svg"
   version="1.2"
   width="146.33113"
   height="161.65897"
   viewBox="0 0 146.33113 161.65897"
   id="svg2">
  <metadata
     id="metadata50">
    <rdf:RDF>
      <cc:Work
         rdf:about="">
        <dc:format>image/svg+xml</dc:format>
        <dc:type
           rdf:resource="http://purl.org/dc/dcmitype/StillImage" />
        <dc:title></dc:title>
      </cc:Work>
    </rdf:RDF>
  </metadata>
  <defs
     id="defs48" />
  <path
     d="m 45.286218,27.968864 c 0.04373,-0.03761 0.04627,-0.04605 0.02533,-0.08512 -0.02701,-0.05049 -0.402174,-0.426397 -0.530239,-0.5313 -0.04811,-0.0394 -0.125051,-0.106423 -0.170992,-0.148928 -0.07935,-0.07342 -0.235788,-0.149382 -0.307581,-0.149382 -0.01824,0 -0.04232,0.01099 -0.05342,0.02435 -0.04032,0.0486 0.259627,0.300513 0.357852,0.300513 0.02181,0 0.05498,0.05974 0.05498,0.09906 0,0.04286 0.06403,0.175711 0.102289,0.212198 0.11348,0.108204 0.196893,0.176014 0.216521,0.176014 0.01245,0 0.05266,0.03247 0.08942,0.07219 0.07852,0.08487 0.142103,0.09383 0.215823,0.03042 z M 38.119693,6.4856354 c -0.233276,0.03605 -0.412765,0.3390684 -0.75,0.2500004 -0.601742,0.616136 0.820392,0.268755 0.96875,0.75 -0.475274,0.019 -0.97095,0.01599 -1.4375,0.125 -0.449878,0.178853 -0.877789,0.415425 -1.28125,0.6875 -0.842972,0.529728 -1.416004,1.357127 -2.0625,2.0937502 -0.330318,0.750307 -0.8624,0.09436 -1.25,-0.21875 -0.530033,-0.3323132 -1.031516,-0.6950702 -1.625,-0.9062502 -0.566509,-0.428508 -1.335035,-0.409744 -2,-0.28125 -0.587756,0.116831 -1.16639,0.343164 -1.53125,0.84375 -0.582181,0.4920352 -0.78276,1.2450532 -0.875,1.9687502 -0.03206,0.432493 -0.05047,1.655168 0.625,1.34375 0.09612,-0.642963 -0.02759,-1.303898 0.15625,-1.9375 0.240355,-0.568916 0.732098,-1.090505 1.34375,-1.2500002 0.569438,-0.320536 0.59162,0.5612302 0.0625,0.6250002 -0.70751,0.268978 -1.0277,1.079306 -1.09375,1.78125 -0.07033,0.54309 -0.14087,1.169343 0.15625,1.65625 0.300904,0.469604 0.300726,-0.230681 0.5625,-0.125 0.432441,-0.577731 0.322899,0.273312 0.46875,0.625 0.780861,0.492577 0.289202,-0.766861 0.75,-1.03125 0.128422,-0.347993 0.13767,-1.49463 0.65625,-1.1875 0.635977,0.499611 1.188109,1.107137 1.75,1.6875 0.243407,0.485543 0.702041,0.755276 1.21875,0.9375 -0.259843,0.444128 0.269107,1.103657 -0.09375,1.4375 -0.264245,-0.03692 -1.080815,0.582529 -0.40625,0.3125 0.280087,0.191229 0.99049,0.46011 0.6875,0.75 -0.540982,0.05808 -1.05562,0.228809 -1.5625,0.4375 -0.571447,0.122862 -1.062107,0.476419 -1.59375,0.625 -0.558547,-0.254049 -1.098406,-0.564036 -1.65625,-0.8125 -0.595838,-0.291832 -1.359895,-0.253675 -1.875,0.1875 -0.540175,0.363503 -0.57941,1.074179 -0.5,1.65625 0.207695,0.924962 0.329571,1.866324 0.6875,2.75 0.165347,0.420735 0.308227,1.457864 0.9375,0.875 0.0589,-0.91271 -0.17715,-1.821496 -0.3125,-2.71875 -0.01615,-0.348899 -0.12084,-0.731657 -0.03125,-1.0625 0.368342,-0.534576 1.05867,-0.24317 1.46875,0.0625 0.496505,0.12524 0.24354,0.418765 0.1875,0.75 0.06749,0.571067 -0.296548,1.110031 -0.4375,1.65625 -0.236739,0.566377 -0.387163,1.169729 -0.8125,1.625 -0.13178,0.721728 -0.11059,1.491181 -0.03125,2.21875 -1.141972,0.151758 -2.074431,1.11102 -3.25,1.09375 -1.100325,-0.03347 -1.754933,-1.345931 -1.0625,-2.21875 0.780042,-0.939681 -0.83591,-0.334647 -0.8125,0.3125 -0.517455,1.087014 0.142457,2.6641 1.40625,2.8125 0.487156,0.292349 1.482959,-0.337497 1.65625,0.3125 0.01842,1.085453 0.100247,2.259629 -0.34375,3.28125 -0.228684,1.0704 -1.84004,0.850942 -1.9375,1.84375 -0.281618,0.63174 -0.170608,1.779106 -0.220971,2.67109 -0.706102,0.287061 -1.094278,0.70849 -1.716529,1.14141 -0.869315,0.621615 -1.610614,1.484258 -1.8125,2.5625 -0.32001,1.309229 0.19902,2.620455 0.21875,3.9375 0.137624,1.113236 -0.03264,2.265177 -0.5625,3.25 -0.117225,0.525472 -1.856573,1.811045 -0.53125,1.625 1.083973,-0.456596 1.49987,-1.701953 1.78125,-2.75 0.201123,-1.534647 -0.07206,-3.083864 0.125,-4.625 0.33469,1.238886 0.49486,2.524195 0.53125,3.8125 -0.126572,1.23028 -0.477163,2.584462 -1.53125,3.34375 -1.050841,0.552885 -0.751845,1.901415 -0.96875,2.875 -0.181101,1.020307 -0.351449,2.040495 -0.65625,3.03125 -0.818307,1.137672 0.538519,1.67183 0.90625,2.5625 -0.320591,0.98254 0.641909,0.93434 1.3125,0.90625 0.887236,0.385165 0.779065,-0.40658 0.5,-0.96875 0.110148,-0.972393 -1.140026,-1.575012 -0.65625,-2.625 0.250695,-1.843313 1.187652,-3.487124 2.0625,-5.09375 0.453583,-0.553881 0.715818,-1.221453 1.15625,-1.78125 0.573738,-0.631422 0.997374,-1.390301 1.59375,-2 0.442813,-0.795056 0.955277,0.453764 1.4375,-0.28125 0.718575,0.340307 1.33493,0.859827 2.0625,1.1875 0.840108,0.411053 1.712159,0.756038 2.625,0.96875 1.387305,0.08559 2.803883,-0.04164 4.15625,-0.34375 1.466455,-0.227452 2.895337,-0.65746 4.375,-0.78125 0.428131,1.443133 0.632711,2.946387 1,4.40625 0.45882,1.02802 0.691509,2.130935 0.8125,3.25 -0.319726,1.050648 0.876241,1.070244 1.0625,1.84375 -0.318439,0.988984 1.691488,1.086335 1.4375,0.25 0.0425,0.487784 0.227314,1.044141 0.96875,0.84375 0.974894,0.286508 0.770589,-0.322363 0.4375,-0.9375 -0.554506,-0.929343 -1.84747,-1.419156 -1.78125,-2.78125 -0.286266,-0.989487 -0.37015,-2.005946 -0.34375,-3.03125 -0.465888,-1.689954 -0.73661,-3.440136 -0.8125,-5.1875 0.538123,-0.88418 0.937913,-1.847855 1.4375,-2.75 0.519358,-0.902238 1.513311,-1.395639 2.46875,-1.71875 0.563029,-0.246789 1.366574,-0.375768 1.84375,0.0625 0.625859,1.166967 1.975377,1.487301 3.15625,1.75 0.851343,-0.243975 1.460583,0.879632 2.28125,0.34375 -0.318445,-0.174763 -1.123637,-1.675633 -0.3125,-1 1.071225,1.476018 1.420401,-0.970022 0.625,-1.53125 -0.640746,-0.817615 -1.5642,-1.631915 -1.5625,-2.75 -0.364873,-0.850707 -1.060454,-1.493893 -1.75,-2.09375 -1.09466,-0.286285 0.429574,-1.224653 0.625,-1.8125 0.567424,-0.673723 0.988412,-1.450121 1.46875,-2.1875 0.468711,-1.115492 -0.79951,-0.13305 -1,0.28125 -0.68817,0.723076 0.289542,-0.59771 -0.08594,-0.835937 -0.659411,0.0033 -1.468188,1.751466 -2.226562,2.210937 -0.735078,-0.545236 -2.123003,-0.04315 -3.125,0.1875 -1.130582,0.195575 -2.19832,0.623437 -3.28125,0.96875 -0.78133,0.281028 -1.560174,0.569046 -2.34375,0.84375 -0.465677,-1.20288 -0.60345,-2.524577 -0.59375,-3.8125 0.117269,-0.665346 0.326573,-1.36243 0.75,-1.90625 0.684953,-0.665977 1.653539,-1.300069 2.65625,-1.09375 0.853968,-0.0079 1.396895,1.553629 2.21875,0.9375 -0.331759,-0.554886 0.169637,-0.31194 0.5625,-0.34375 1.015445,-0.149314 0.350293,-0.817651 -0.09375,-1.25 -0.859605,-0.480805 -0.817198,-1.533124 -1.468748,-2.15625 -0.955729,-0.607535 0.121488,-1.338135 0.28125,-2.09375 0.439102,-1.37047 -0.742977,0.05781 -1.125,0.375 -0.692148,0.718047 -1.546453,1.188886 -2.5,1.46875 -0.905853,0.464793 -1.817666,0.927041 -2.78125,1.25 -0.05818,-0.375453 -0.65425,-0.490492 -0.65625,-1 -0.124711,-0.559175 -0.2196,-1.151498 -0.3125,-1.71875 -0.01972,-0.527747 -0.246143,-1.162705 0.21875,-1.5625 0.454922,-0.588575 1.045947,-1.066253 1.6875,-1.4375 0.298091,-0.05673 0.641246,-0.069 0.90625,-0.28125 -0.06689,-0.394586 0.08029,-0.971927 -0.25,-1.34375 -0.280035,-0.450706 -0.720058,-0.904685 -1.3125,-0.75 -0.657453,0.255077 -1.274718,0.631688 -1.875,1 -0.387062,-0.05111 -0.915977,0.150758 -1.125,-0.28125 -0.174524,-0.401276 -0.368648,-0.69447 -0.875,-0.75 -0.702266,-0.13411 -0.252959,-0.246604 -0.5,-0.65625 0.02583,-0.66653 -0.103555,-1.371481 0.15625,-2 0.35366,-0.54818 0.969516,-0.897798 1.3125,-1.46875 0.353271,-0.560431 0.803635,-1.059824 1.09375,-1.65625 0.161511,-0.588855 0.0031,-1.21662 0.15625,-1.8125 0.07677,-0.5829912 0.416438,-1.1328552 0.96875,-1.3750002 0.605444,-0.46185 0.8202,0.277265 0.8125,0.75 0.05935,0.8546422 1.207006,0.328574 0.84375,-0.34375 0.245516,0.276514 0.373079,0.224172 0.15625,-0.125 -0.300774,-0.371075 -4.54e-4,-0.2283 0.21875,-0.0625 0.458488,0.593156 0.117333,-0.425385 -0.125,-0.59375 0.49393,-0.101473 0.551243,-0.634393 0.15625,-0.9375 -0.34762,0.119295 -0.281673,-0.112113 -0.40625,-0.375 -0.143078,-0.4118924 -0.337983,0.01998 -0.5,-0.15625 -0.181241,-0.3934644 -0.528504,-0.1459404 -0.71875,-0.2187504 -0.09501,-0.06976 -0.172241,-0.105766 -0.25,-0.09375 z m -9.125,4.7500006 c 0.606983,0.295185 -0.260938,0.617185 -0.40625,0.9375 -0.217392,0.3035 0.141627,-0.9475 0.40625,-0.9375 z m 3.8125,5.25 c 0.129041,-0.0653 0.317091,-0.01899 0.25,0.28125 0.05548,0.14584 -0.07128,0.08605 -0.15625,0.09375 -0.295127,-0.114625 -0.222791,-0.309697 -0.09375,-0.375 z m 0.9375,5.65625 c 0.299898,-0.0091 0.594139,0.01 0.875,0.125 0.595004,0.188457 0.576911,0.985813 0.84375,1.46875 0.331845,0.613882 0.201877,1.289013 -0.0625,1.875 0.120879,0.765224 0.91409,0.08968 0.875,-0.40625 0.248596,-0.474341 0.18145,-1.022958 0.125,-1.53125 0.129717,0.08408 0.432316,0.839833 0.59375,1.15625 0.01426,0.50768 0.706545,0.639482 0.4375,1.15625 -0.908675,0.5093 -2.556392,0.461938 -3.5625,0.21875 -1.650869,-0.248603 -3.288922,-0.5689 -4.96875,-0.5625 -0.223933,-0.641675 -0.291671,-0.820105 0.09375,-1.40625 0.349322,-0.538599 0.925342,-0.824175 1.46875,-1.125 0.738712,-0.421737 1.542278,-0.728995 2.375,-0.90625 0.291517,-0.03162 0.606352,-0.0534 0.90625,-0.0625 z m -3.71875,7.71875 c 0.354613,-0.03787 0.893128,0.321302 1.21875,0.53125 0.978391,0.739588 2.042286,1.51317 3.3125,1.59375 0.941172,0.08333 1.885036,-0.05922 2.8125,-0.09375 0.496517,1.120441 0.84917,2.293206 1.28125,3.4375 0.0085,0.0023 -0.504117,0.404671 -0.6875,0.53125 -1.051267,0.733574 -2.302242,0.92626 -3.5625,0.875 -0.909029,0.06461 -1.811878,-0.06596 -2.71875,-0.09375 -1.606723,-0.01005 -3.158956,-0.41469 -4.71875,-0.75 0.0078,-0.135505 0.159772,-0.04021 -0.40625,-0.34375 -0.583414,-0.673517 -0.509806,-2.08052 0.4375,-2.46875 1.137642,-0.543147 2.132777,-1.448617 2.6875,-2.59375 -0.0084,-0.425467 0.130982,-0.602279 0.34375,-0.625 z m -5.125,3.5 c 0.299954,0.36888 0.45781,1.522449 0.53125,2.1875 -0.06503,0.131119 -1.415354,-0.01383 -1.6875,0 0.403818,-0.556647 0.219712,-1.843432 1.15625,-2.1875 z m 17.125,18.46875 c 0.001,-0.06408 0.0085,-0.06645 0.0625,0.09375 0.03345,0.09926 0.07221,0.25938 0.09375,0.34375 0.02151,0.08437 0.05059,0.16764 0.0625,0.1875 0.05866,0.09772 0.28125,1.014157 0.28125,1.15625 -10e-6,0.04558 -0.01742,0.04968 -0.0625,0 -0.07268,-0.08008 -0.1188,-0.148124 -0.15625,-0.34375 -0.04555,-0.237942 -0.12395,-0.707013 -0.1875,-0.96875 -0.08327,-0.343061 -0.09485,-0.39578 -0.09375,-0.46875 z"
     id="path3162"
     style="fill:#ffb400;fill-opacity:1;fill-rule:evenodd" />
  <circle
     cx="36"
     cy="54"
     r="22"
     transform="matrix(-1.477616,0,0,1.5065066,86.556228,-47.353711)"
     id="circle10-4"
     style="fill:none;stroke:#dc0067;stroke-width:1.14544892;stroke-miterlimit:4;stroke-opacity:1;stroke-dasharray:none" />
  <circle
     cx="36"
     cy="54"
     r="22"
     transform="matrix(1.477616,0,0,1.5065066,-15.136362,11.035958)"
     id="circle10"
     style="fill:none;stroke:#dc0067;stroke-width:1.14544892;stroke-miterlimit:4;stroke-opacity:1;stroke-dasharray:none" />
  <polygon
     points="30,48 22,48 22,52 30,52 26,56 31,56 37,50 31,44 26,44 "
     transform="matrix(1.4493674,0,0,1.3737988,-14.714398,15.975227)"
     id="polygon16"
     style="fill:#ffb400;fill-opacity:1" />
  <polygon
     points="88,53 88,47 75,47 81,41 73,41 64,50 73,59 81,59 75,53 "
     transform="matrix(1.5159598,0,0,1.568926,-17.292669,6.2373254)"
     id="polygon18"
     style="fill:#ffb400;fill-opacity:1" />
  <circle
     cx="74"
     cy="44"
     r="22"
     transform="matrix(1.5950476,0,0,1.6223254,-22.086373,4.2931414)"
     id="circle12"
     style="fill:none;stroke:#dc0067;stroke-width:1.06239557;stroke-miterlimit:4;stroke-opacity:1;stroke-dasharray:none" />
  <g
     id="text3002"
     style="font-size:24px;font-style:normal;font-variant:normal;font-weight:normal;font-stretch:normal;line-height:125%;letter-spacing:0px;word-spacing:0px;fill:#ffffff;fill-opacity:1;stroke:none;font-family:Swiss 911;-inkscape-font-specification:Swiss 911">
    <path
       d="m 11.547099,150.59497 c -5e-6,-0.27199 -0.04,-0.47199 -0.12,-0.6 -0.064,-0.14399 -0.208004,-0.21599 -0.432,-0.216 -0.368004,1e-5 -0.552004,0.27201 -0.552,0.816 l 0,7.704 c -4e-6,0.56 0.183996,0.84 0.552,0.84 0.223996,0 0.367996,-0.072 0.432,-0.216 0.08,-0.144 0.119995,-0.352 0.12,-0.624 l 0,-7.704 m -4.152,-6.552 3.048,0 0,4.608 0.048,0 c 0.463996,-0.94399 1.175995,-1.41599 2.136,-1.416 1.327993,1e-5 1.991992,0.78401 1.992,2.352 l 0,9.744 c -8e-6,1.552 -0.664007,2.328 -1.992,2.328 -1.056005,0 -1.784004,-0.512 -2.184,-1.536 l -0.048,0 0,1.2 -3,0 0,-17.28"
       id="path2992"
       style="fill:#ffffff" />
    <path
       d="m 15.551349,147.49897 3,0 0,1.152 0.048,0 c 0.511996,-0.94399 1.239995,-1.41599 2.184,-1.416 1.327993,1e-5 1.991992,0.78401 1.992,2.352 l 0,5.352 -3.072,0 0,-4.344 c -5e-6,-0.27199 -0.04001,-0.47199 -0.12,-0.6 -0.064,-0.14399 -0.208004,-0.21599 -0.432,-0.216 -0.368004,1e-5 -0.552004,0.27201 -0.552,0.816 l 0,10.728 -3.048,0 0,-13.824"
       id="path2994"
       style="fill:#ffffff" />
    <path
       d="m 26.473224,152.77897 1.104,0 0,-2.616 c -5e-6,-0.55999 -0.184004,-0.83999 -0.552,-0.84 -0.368004,1e-5 -0.552004,0.28001 -0.552,0.84 l 0,2.616 m 0,5.76 c -4e-6,0.56 0.183996,0.84 0.552,0.84 0.367996,0 0.551995,-0.28 0.552,-0.84 l 0,-2.592 3.048,0 0,2.568 c -8e-6,0.992 -0.312007,1.768 -0.936,2.328 -0.624006,0.544 -1.512005,0.816 -2.664,0.816 -0.704003,0 -1.288003,-0.088 -1.752,-0.264 -0.464002,-0.16 -0.832001,-0.4 -1.104,-0.72 -0.272001,-0.336 -0.464001,-0.744 -0.576,-1.224 -0.112001,-0.496 -0.168,-1.072 -0.168,-1.728 l 0,-6.624 c 0,-0.65599 0.056,-1.23199 0.168,-1.728 0.111999,-0.49599 0.303999,-0.90399 0.576,-1.224 0.271999,-0.33599 0.631998,-0.58399 1.08,-0.744 0.463997,-0.15999 1.047997,-0.23999 1.752,-0.24 1.151995,1e-5 2.039994,0.26401 2.664,0.792 0.639993,0.52801 0.959992,1.25601 0.96,2.184 l 0,4.704 -4.152,0 0,3.696"
       id="path2996"
       style="fill:#ffffff" />
    <path
       d="m 31.582599,147.49897 2.976,0 0,1.152 0.048,0 c 0.479996,-0.94399 1.207995,-1.41599 2.184,-1.416 0.927993,1e-5 1.543993,0.47201 1.848,1.416 l 0.048,0 c 0.527992,-0.94399 1.263991,-1.41599 2.208,-1.416 0.687989,1e-5 1.183989,0.19201 1.488,0.576 0.319988,0.38401 0.479988,0.97601 0.48,1.776 l 0,11.736 -3.048,0 0,-10.728 c -9e-6,-0.27199 -0.04001,-0.47199 -0.12,-0.6 -0.06401,-0.14399 -0.208008,-0.21599 -0.432,-0.216 -0.368008,1e-5 -0.552008,0.27201 -0.552,0.816 l 0,10.728 -3,0 0,-10.728 c -5e-6,-0.27199 -0.04001,-0.47199 -0.12,-0.6 -0.064,-0.14399 -0.208004,-0.21599 -0.432,-0.216 -0.368004,1e-5 -0.552004,0.27201 -0.552,0.816 l 0,10.728 -3.024,0 0,-13.824"
       id="path2998"
       style="fill:#ffffff" />
    <path
       d="m 46.816974,152.77897 1.104,0 0,-2.616 c -5e-6,-0.55999 -0.184004,-0.83999 -0.552,-0.84 -0.368004,1e-5 -0.552004,0.28001 -0.552,0.84 l 0,2.616 m 0,5.76 c -4e-6,0.56 0.183996,0.84 0.552,0.84 0.367996,0 0.551995,-0.28 0.552,-0.84 l 0,-2.592 3.048,0 0,2.568 c -8e-6,0.992 -0.312007,1.768 -0.936,2.328 -0.624006,0.544 -1.512005,0.816 -2.664,0.816 -0.704003,0 -1.288003,-0.088 -1.752,-0.264 -0.464002,-0.16 -0.832001,-0.4 -1.104,-0.72 -0.272001,-0.336 -0.464001,-0.744 -0.576,-1.224 -0.112001,-0.496 -0.168,-1.072 -0.168,-1.728 l 0,-6.624 c 0,-0.65599 0.056,-1.23199 0.168,-1.728 0.111999,-0.49599 0.303999,-0.90399 0.576,-1.224 0.271999,-0.33599 0.631998,-0.58399 1.08,-0.744 0.463997,-0.15999 1.047997,-0.23999 1.752,-0.24 1.151995,1e-5 2.039994,0.26401 2.664,0.792 0.639993,0.52801 0.959992,1.25601 0.96,2.184 l 0,4.704 -4.152,0 0,3.696"
       id="path3000"
       style="fill:#ffffff" />
    <path
       d="m 51.926349,147.49897 3,0 0,1.152 0.048,0 c 0.511996,-0.94399 1.239995,-1.41599 2.184,-1.416 1.327993,1e-5 1.991992,0.78401 1.992,2.352 l 0,11.736 -3.072,0 0,-10.728 c -5e-6,-0.27199 -0.04001,-0.47199 -0.12,-0.6 -0.064,-0.14399 -0.208004,-0.21599 -0.432,-0.216 -0.368004,1e-5 -0.552004,0.27201 -0.552,0.816 l 0,10.728 -3.048,0 0,-13.824"
       id="path3002"
       style="fill:#ffffff" />
    <path
       d="m 60.321474,157.79497 3.168,0 0,3.528 -3.168,0 0,-3.528"
       id="path3004"
       style="fill:#ffffff" />
    <path
       d="m 65.156349,149.68297 -0.744,0 0,-2.184 0.744,0 0,-1.32 c -1e-6,-0.68799 0.199999,-1.21599 0.6,-1.584 0.415998,-0.36799 0.983997,-0.55199 1.704,-0.552 l 1.728,0 0,2.16 c -0.656004,1e-5 -0.984004,0.18401 -0.984,0.552 l 0,0.744 0.984,0 0,2.184 -0.984,0 0,11.64 -3.048,0 0,-11.64"
       id="path3006"
       style="fill:#ffffff" />
    <path
       d="m 69.738849,147.49897 3,0 0,1.152 0.048,0 c 0.511996,-0.94399 1.239995,-1.41599 2.184,-1.416 1.327993,1e-5 1.991992,0.78401 1.992,2.352 l 0,5.352 -3.072,0 0,-4.344 c -5e-6,-0.27199 -0.04001,-0.47199 -0.12,-0.6 -0.064,-0.14399 -0.208004,-0.21599 -0.432,-0.216 -0.368004,1e-5 -0.552004,0.27201 -0.552,0.816 l 0,10.728 -3.048,0 0,-13.824"
       id="path3008"
       style="fill:#ffffff" />
    <path
       d="m 80.660724,152.77897 1.104,0 0,-2.616 c -5e-6,-0.55999 -0.184004,-0.83999 -0.552,-0.84 -0.368004,1e-5 -0.552004,0.28001 -0.552,0.84 l 0,2.616 m 0,5.76 c -4e-6,0.56 0.183996,0.84 0.552,0.84 0.367996,0 0.551995,-0.28 0.552,-0.84 l 0,-2.592 3.048,0 0,2.568 c -8e-6,0.992 -0.312007,1.768 -0.936,2.328 -0.624006,0.544 -1.512005,0.816 -2.664,0.816 -0.704003,0 -1.288003,-0.088 -1.752,-0.264 -0.464002,-0.16 -0.832001,-0.4 -1.104,-0.72 -0.272001,-0.336 -0.464001,-0.744 -0.576,-1.224 -0.112001,-0.496 -0.168,-1.072 -0.168,-1.728 l 0,-6.624 c 0,-0.65599 0.056,-1.23199 0.168,-1.728 0.111999,-0.49599 0.303999,-0.90399 0.576,-1.224 0.271999,-0.33599 0.631998,-0.58399 1.08,-0.744 0.463997,-0.15999 1.047997,-0.23999 1.752,-0.24 1.151995,1e-5 2.039994,0.26401 2.664,0.792 0.639993,0.52801 0.959992,1.25601 0.96,2.184 l 0,4.704 -4.152,0 0,3.696"
       id="path3010"
       style="fill:#ffffff" />
    <path
       d="m 85.770099,147.49897 3.048,0 0,13.824 -3.048,0 0,-13.824 m 0,-3.456 3.048,0 0,2.616 -3.048,0 0,-2.616"
       id="path3012"
       style="fill:#ffffff" />
    <path
       d="m 90.328224,149.68297 -0.744,0 0,-2.184 0.744,0 0,-1.32 c -1e-6,-0.68799 0.199999,-1.21599 0.6,-1.584 0.415998,-0.36799 0.983997,-0.55199 1.704,-0.552 l 1.728,0 0,2.16 c -0.656004,1e-5 -0.984004,0.18401 -0.984,0.552 l 0,0.744 0.984,0 0,2.184 -0.984,0 0,11.64 -3.048,0 0,-11.64"
       id="path3014"
       style="fill:#ffffff" />
    <path
       d="m 102.13472,161.32297 -2.999996,0 0,-1.152 -0.072,0 c -0.496004,0.928 -1.216003,1.392 -2.16,1.392 -1.328001,0 -1.992001,-0.776 -1.992,-2.328 l 0,-11.736 3.048,0 0,10.728 c -4e-6,0.272 0.04,0.48 0.12,0.624 0.08,0.128 0.231996,0.192 0.456,0.192 0.351995,0 0.527995,-0.272 0.528,-0.816 l 0,-10.728 3.071996,0 0,13.824"
       id="path3016"
       style="fill:#ffffff" />
    <path
       d="m 103.11385,147.49897 3,0 0,1.152 0.048,0 c 0.51199,-0.94399 1.23999,-1.41599 2.184,-1.416 1.32799,1e-5 1.99199,0.78401 1.992,2.352 l 0,11.736 -3.072,0 0,-10.728 c -1e-5,-0.27199 -0.04,-0.47199 -0.12,-0.6 -0.064,-0.14399 -0.20801,-0.21599 -0.432,-0.216 -0.368,1e-5 -0.552,0.27201 -0.552,0.816 l 0,10.728 -3.048,0 0,-13.824"
       id="path3018"
       style="fill:#ffffff" />
    <path
       d="m 111.31697,144.04297 3.048,0 0,9.48 0.048,0 1.296,-6.024 3.12,0 -1.512,5.976 1.512,7.848 -3.216,0 -1.2,-7.248 -0.048,0 0,7.248 -3.048,0 0,-17.28"
       id="path3020"
       style="fill:#ffffff" />
    <path
       d="m 119.43085,157.79497 3.168,0 0,3.528 -3.168,0 0,-3.528"
       id="path3022"
       style="fill:#ffffff" />
    <path
       d="m 123.78572,147.49897 3,0 0,1.152 0.048,0 c 0.512,-0.94399 1.24,-1.41599 2.184,-1.416 1.328,1e-5 1.992,0.78401 1.992,2.352 l 0,11.736 -3.072,0 0,-10.728 c 0,-0.27199 -0.04,-0.47199 -0.12,-0.6 -0.064,-0.14399 -0.208,-0.21599 -0.432,-0.216 -0.368,1e-5 -0.552,0.27201 -0.552,0.816 l 0,10.728 -3.048,0 0,-13.824"
       id="path3024"
       style="fill:#ffffff" />
    <path
       d="m 134.98885,152.77897 1.104,0 0,-2.616 c -1e-5,-0.55999 -0.18401,-0.83999 -0.552,-0.84 -0.368,1e-5 -0.552,0.28001 -0.552,0.84 l 0,2.616 m 0,5.76 c 0,0.56 0.184,0.84 0.552,0.84 0.36799,0 0.55199,-0.28 0.552,-0.84 l 0,-2.592 3.048,0 0,2.568 c -1e-5,0.992 -0.31201,1.768 -0.936,2.328 -0.62401,0.544 -1.51201,0.816 -2.664,0.816 -0.704,0 -1.288,-0.088 -1.752,-0.264 -0.464,-0.16 -0.832,-0.4 -1.104,-0.72 -0.272,-0.336 -0.464,-0.744 -0.576,-1.224 -0.112,-0.496 -0.168,-1.072 -0.168,-1.728 l 0,-6.624 c 0,-0.65599 0.056,-1.23199 0.168,-1.728 0.112,-0.49599 0.304,-0.90399 0.576,-1.224 0.272,-0.33599 0.632,-0.58399 1.08,-0.744 0.464,-0.15999 1.048,-0.23999 1.752,-0.24 1.15199,1e-5 2.03999,0.26401 2.664,0.792 0.63999,0.52801 0.95999,1.25601 0.96,2.184 l 0,4.704 -4.152,0 0,3.696"
       id="path3026"
       style="fill:#ffffff" />
    <path
       d="m 139.61822,147.49897 0.768,0 0,-2.568 3.072,0 0,2.568 0.888,0 0,2.208 -0.888,0 0,8.4 c 0,0.368 0.04,0.624 0.12,0.768 0.08,0.144 0.304,0.216 0.672,0.216 l 0.096,0 0,2.232 -1.92,0 c -0.432,0 -0.784,-0.048 -1.056,-0.144 -0.256,-0.112 -0.464,-0.272 -0.624,-0.48 -0.144,-0.208 -0.24,-0.464 -0.288,-0.768 -0.048,-0.304 -0.072,-0.648 -0.072,-1.032 l 0,-9.192 -0.768,0 0,-2.208"
       id="path3028"
       style="fill:#ffffff" />
  </g>
  <circle
     cx="74"
     cy="44"
     r="29"
     transform="matrix(1.5831269,0,0,1.5986441,-21.353947,5.3349404)"
     id="circle14"
     style="fill:none;stroke:#dc0067;stroke-width:5.81192684;stroke-miterlimit:4;stroke-opacity:1;stroke-dasharray:none" />
</svg>
