<?xml version="1.0" encoding="UTF-8" standalone="no"?>
<svg xmlns="http://www.w3.org/2000/svg" version="1.2" width="146.67" height="161.65" viewBox="0 0 146.67 161.65">
<g style="stroke:#dc0067;fill:none;stroke-width:1.7">
<circle cx="33.35" cy="33.35" r="32.5"/>
<circle cx="38.05" cy="92.35" r="33"/>
<circle cx="95.95" cy="75.7" r="35.2"/>
<circle cx="95.95" cy="75.7" r="46.1" style="stroke-width:9.24"/>
</g>
<g style="fill:#ffb400;fill-rule:evenodd">
<path d="m45.28,27.96c0.04,-0.03 0.04,-0.04 0.02,-0.08-0.02,-0.05-0.40,-0.42-0.53,-0.53-0.04,-0.03-0.12,-0.10-0.17,-0.14-0.07,-0.07-0.23,-0.14-0.30,-0.14-0.01,0-0.04,0.01-0.05,0.02-0.04,0.04 0.25,0.30 0.35,0.30 0.02,0 0.05,0.05 0.05,0.09 0,0.04 0.06,0.17 0.10,0.21 0.11,0.10 0.19,0.17 0.21,0.17 0.01,0 0.05,0.03 0.08,0.07 0.07,0.08 0.14,0.09 0.21,0.03zM38.11,6.48c-0.23,0.03-0.41,0.33-0.75,0.25-0.60,0.61 0.82,0.26 0.96,0.75-0.47,0.01-0.97,0.01-1.43,0.12-0.44,0.17-0.87,0.41-1.28,0.68-0.84,0.52-1.41,1.35-2.06,2.09-0.33,0.75-0.86,0.09-1.25,-0.21-0.53,-0.33-1.03,-0.69-1.62,-0.90-0.56,-0.42-1.33,-0.40-2,-0.28-0.58,0.11-1.16,0.34-1.53,0.84-0.58,0.49-0.78,1.24-0.87,1.96-0.03,0.43-0.05,1.65 0.62,1.34 0.09,-0.64-0.02,-1.30 0.15,-1.93 0.24,-0.56 0.73,-1.09 1.34,-1.25 0.56,-0.32 0.59,0.56 0.06,0.62-0.70,0.26-1.02,1.07-1.09,1.78-0.07,0.54-0.14,1.16 0.15,1.65 0.30,0.46 0.30,-0.23 0.56,-0.12 0.43,-0.57 0.32,0.27 0.46,0.62 0.78,0.49 0.28,-0.76 0.75,-1.03 0.12,-0.34 0.13,-1.49 0.65,-1.18 0.63,0.49 1.18,1.10 1.75,1.68 0.24,0.48 0.70,0.75 1.21,0.93-0.25,0.44 0.26,1.10-0.09,1.43-0.26,-0.03-1.08,0.58-0.40,0.31 0.28,0.19 0.99,0.46 0.68,0.75-0.54,0.05-1.05,0.22-1.56,0.43-0.57,0.12-1.06,0.47-1.59,0.62-0.55,-0.25-1.09,-0.56-1.65,-0.81-0.59,-0.29-1.35,-0.25-1.87,0.18-0.54,0.36-0.57,1.07-0.5,1.65 0.20,0.92 0.32,1.86 0.68,2.75 0.16,0.42 0.30,1.45 0.93,0.87 0.05,-0.91-0.17,-1.82-0.31,-2.71-0.01,-0.34-0.12,-0.73-0.03,-1.06 0.36,-0.53 1.05,-0.24 1.46,0.06 0.49,0.12 0.24,0.41 0.18,0.75 0.06,0.57-0.29,1.11-0.43,1.65-0.23,0.56-0.38,1.16-0.81,1.62-0.13,0.72-0.11,1.49-0.03,2.21-1.14,0.15-2.07,1.11-3.25,1.09-1.10,-0.03-1.75,-1.34-1.06,-2.21 0.78,-0.93-0.83,-0.33-0.81,0.31-0.51,1.08 0.14,2.66 1.40,2.81 0.48,0.29 1.48,-0.33 1.65,0.31 0.01,1.08 0.10,2.25-0.34,3.28-0.22,1.07-1.84,0.85-1.93,1.84-0.28,0.63-0.17,1.77-0.22,2.67-0.70,0.28-1.09,0.70-1.71,1.14-0.86,0.62-1.61,1.48-1.81,2.56-0.32,1.30 0.19,2.62 0.21,3.93 0.13,1.11-0.03,2.26-0.56,3.25-0.11,0.52-1.85,1.81-0.53,1.62 1.08,-0.45 1.49,-1.70 1.78,-2.75 0.20,-1.53-0.07,-3.08 0.12,-4.62 0.33,1.23 0.49,2.52 0.53,3.81-0.12,1.23-0.47,2.58-1.53,3.34-1.05,0.55-0.75,1.90-0.96,2.87-0.18,1.02-0.35,2.04-0.65,3.03-0.81,1.13 0.53,1.67 0.90,2.56-0.32,0.98 0.64,0.93 1.31,0.90 0.88,0.38 0.77,-0.40 0.5,-0.96 0.11,-0.97-1.14,-1.57-0.65,-2.62 0.25,-1.84 1.18,-3.48 2.06,-5.09 0.45,-0.55 0.71,-1.22 1.15,-1.78 0.57,-0.63 0.99,-1.39 1.59,-2 0.44,-0.79 0.95,0.45 1.43,-0.28 0.71,0.34 1.33,0.85 2.06,1.18 0.84,0.41 1.71,0.75 2.62,0.96 1.38,0.08 2.80,-0.04 4.15,-0.34 1.46,-0.22 2.89,-0.65 4.37,-0.78 0.42,1.44 0.63,2.94 1,4.40 0.45,1.02 0.69,2.13 0.81,3.25-0.31,1.05 0.87,1.07 1.06,1.84-0.31,0.98 1.69,1.08 1.43,0.25 0.04,0.48 0.22,1.04 0.96,0.84 0.97,0.28 0.77,-0.32 0.43,-0.93-0.55,-0.92-1.84,-1.41-1.78,-2.78-0.28,-0.98-0.37,-2.00-0.34,-3.03-0.46,-1.68-0.73,-3.44-0.81,-5.18 0.53,-0.88 0.93,-1.84 1.43,-2.75 0.51,-0.90 1.51,-1.39 2.46,-1.71 0.56,-0.24 1.36,-0.37 1.84,0.06 0.62,1.16 1.97,1.48 3.15,1.75 0.85,-0.24 1.46,0.87 2.28,0.34-0.31,-0.17-1.12,-1.67-0.31,-1 1.07,1.47 1.42,-0.97 0.62,-1.53-0.64,-0.81-1.56,-1.63-1.56,-2.75-0.36,-0.85-1.06,-1.49-1.75,-2.09-1.09,-0.28 0.42,-1.22 0.62,-1.81 0.56,-0.67 0.98,-1.45 1.46,-2.18 0.46,-1.11-0.79,-0.13-1,0.28-0.68,0.72 0.28,-0.59-0.08,-0.83-0.65,0.00-1.46,1.75-2.22,2.21-0.73,-0.54-2.12,-0.04-3.12,0.18-1.13,0.19-2.19,0.62-3.28,0.96-0.78,0.28-1.56,0.56-2.34,0.84-0.46,-1.20-0.60,-2.52-0.59,-3.81 0.11,-0.66 0.32,-1.36 0.75,-1.90 0.68,-0.66 1.65,-1.30 2.65,-1.09 0.85,-0.00 1.39,1.55 2.21,0.93-0.33,-0.55 0.16,-0.31 0.56,-0.34 1.01,-0.14 0.35,-0.81-0.09,-1.25-0.85,-0.48-0.81,-1.53-1.46,-2.15-0.95,-0.60 0.12,-1.33 0.28,-2.09 0.43,-1.37-0.74,0.05-1.12,0.37-0.69,0.71-1.54,1.18-2.5,1.46-0.90,0.46-1.81,0.92-2.78,1.25-0.05,-0.37-0.65,-0.49-0.65,-1-0.12,-0.55-0.21,-1.15-0.31,-1.71-0.01,-0.52-0.24,-1.16 0.21,-1.56 0.45,-0.58 1.04,-1.06 1.68,-1.43 0.29,-0.05 0.64,-0.06 0.90,-0.28-0.06,-0.39 0.08,-0.97-0.25,-1.34-0.28,-0.45-0.72,-0.90-1.31,-0.75-0.65,0.25-1.27,0.63-1.87,1-0.38,-0.05-0.91,0.15-1.12,-0.28-0.17,-0.40-0.36,-0.69-0.87,-0.75-0.70,-0.13-0.25,-0.24-0.5,-0.65 0.02,-0.66-0.10,-1.37 0.15,-2 0.35,-0.54 0.96,-0.89 1.31,-1.46 0.35,-0.56 0.80,-1.05 1.09,-1.65 0.16,-0.58 0.00,-1.21 0.15,-1.81 0.07,-0.58 0.41,-1.13 0.96,-1.37 0.60,-0.46 0.82,0.27 0.81,0.75 0.05,0.85 1.20,0.32 0.84,-0.34 0.24,0.27 0.37,0.22 0.15,-0.12-0.30,-0.37-4.54e-4,-0.22 0.21,-0.06 0.45,0.59 0.11,-0.42-0.12,-0.59 0.49,-0.10 0.55,-0.63 0.15,-0.93-0.34,0.11-0.28,-0.11-0.40,-0.37-0.14,-0.41-0.33,0.01-0.5,-0.15-0.18,-0.39-0.52,-0.14-0.71,-0.21-0.09,-0.06-0.17,-0.10-0.25,-0.09zm-9.12,4.75c0.60,0.29-0.26,0.61-0.40,0.93-0.21,0.30 0.14,-0.94 0.40,-0.93zm3.81,5.25c0.12,-0.06 0.31,-0.01 0.25,0.28 0.05,0.14-0.07,0.08-0.15,0.09-0.29,-0.11-0.22,-0.30-0.09,-0.37zm0.93,5.65c0.29,-0.00 0.59,0.01 0.87,0.12 0.59,0.18 0.57,0.98 0.84,1.46 0.33,0.61 0.20,1.28-0.06,1.87 0.12,0.76 0.91,0.08 0.87,-0.40 0.24,-0.47 0.18,-1.02 0.12,-1.53 0.12,0.08 0.43,0.83 0.59,1.15 0.01,0.50 0.70,0.63 0.43,1.15-0.90,0.50-2.55,0.46-3.56,0.21-1.65,-0.24-3.28,-0.56-4.96,-0.56-0.22,-0.64-0.29,-0.82 0.09,-1.40 0.34,-0.53 0.92,-0.82 1.46,-1.12 0.73,-0.42 1.54,-0.72 2.37,-0.90 0.29,-0.03 0.60,-0.05 0.90,-0.06zm-3.71,7.71c0.35,-0.03 0.89,0.32 1.21,0.53 0.97,0.73 2.04,1.51 3.31,1.59 0.94,0.08 1.88,-0.05 2.81,-0.09 0.49,1.12 0.84,2.29 1.28,3.43 0.00,0.00-0.50,0.40-0.68,0.53-1.05,0.73-2.30,0.92-3.56,0.87-0.90,0.06-1.81,-0.06-2.71,-0.09-1.60,-0.01-3.15,-0.41-4.71,-0.75 0.00,-0.13 0.15,-0.04-0.40,-0.34-0.58,-0.67-0.50,-2.08 0.43,-2.46 1.13,-0.54 2.13,-1.44 2.68,-2.59-0.00,-0.42 0.13,-0.60 0.34,-0.62zm-5.12,3.5c0.29,0.36 0.45,1.52 0.53,2.18-0.06,0.13-1.41,-0.01-1.68,0 0.40,-0.55 0.21,-1.84 1.15,-2.18zm17.12,18.46c0.00,-0.06 0.00,-0.06 0.06,0.09 0.03,0.09 0.07,0.25 0.09,0.34 0.02,0.08 0.05,0.16 0.06,0.18 0.05,0.09 0.28,1.01 0.28,1.15-10e-6,0.04-0.01,0.04-0.06,0-0.07,-0.08-0.11,-0.14-0.15,-0.34-0.04,-0.23-0.12,-0.70-0.18,-0.96-0.08,-0.34-0.09,-0.39-0.09,-0.46z"/>
<polygon points="30,48 22,48 22,52 30,52 26,56 31,56 37,50 31,44 26,44" transform="matrix(1.449,0,0,1.373,-14.714,15.975)"/>
<polygon points="88,53 88,47 75,47 81,41 73,41 64,50 73,59 81,59 75,53" transform="matrix(1.515,0,0,1.568,-17.292,6.237)"/>
</g>
<g style="fill:#fff">
<path d="m11.54,150.59c-5e-6,-0.27-0.04,-0.47-0.12,-0.6-0.06,-0.14-0.20,-0.21-0.43,-0.21-0.36,1e-5-0.55,0.27-0.55,0.81l0,7.70c-4e-6,0.56 0.18,0.84 0.55,0.84 0.22,0 0.36,-0.07 0.43,-0.21 0.08,-0.14 0.11,-0.35 0.12,-0.62l0,-7.70m-4.15,-6.55 3.04,0 0,4.60 0.04,0c0.46,-0.94 1.17,-1.41 2.13,-1.41 1.32,1e-5 1.99,0.78 1.99,2.35l0,9.74c-8e-6,1.55-0.66,2.32-1.99,2.32-1.05,0-1.78,-0.51-2.18,-1.53l-0.04,0 0,1.2-3,0 0,-17.28"/>
<path d="m15.55,147.49 3,0 0,1.15 0.04,0c0.51,-0.94 1.23,-1.41 2.18,-1.41 1.32,1e-5 1.99,0.78 1.99,2.35l0,5.35-3.07,0 0,-4.34c-5e-6,-0.27-0.04,-0.47-0.12,-0.6-0.06,-0.14-0.20,-0.21-0.43,-0.21-0.36,1e-5-0.55,0.27-0.55,0.81l0,10.72-3.04,0 0,-13.82"/>
<path d="m26.47,152.77 1.10,0 0,-2.61c-5e-6,-0.55-0.18,-0.83-0.55,-0.84-0.36,1e-5-0.55,0.28-0.55,0.84l0,2.61m0,5.76c-4e-6,0.56 0.18,0.84 0.55,0.84 0.36,0 0.55,-0.28 0.55,-0.84l0,-2.59 3.04,0 0,2.56c-8e-6,0.99-0.31,1.76-0.93,2.32-0.62,0.54-1.51,0.81-2.66,0.81-0.70,0-1.28,-0.08-1.75,-0.26-0.46,-0.16-0.83,-0.4-1.10,-0.72-0.27,-0.33-0.46,-0.74-0.57,-1.22-0.11,-0.49-0.16,-1.07-0.16,-1.72l0,-6.62c0,-0.65 0.05,-1.23 0.16,-1.72 0.11,-0.49 0.30,-0.90 0.57,-1.22 0.27,-0.33 0.63,-0.58 1.08,-0.74 0.46,-0.15 1.04,-0.23 1.75,-0.24 1.15,1e-5 2.03,0.26 2.66,0.79 0.63,0.52 0.95,1.25 0.96,2.18l0,4.70-4.15,0 0,3.69"/>
<path d="m31.58,147.49 2.97,0 0,1.15 0.04,0c0.47,-0.94 1.20,-1.41 2.18,-1.41 0.92,1e-5 1.54,0.47 1.84,1.41l0.04,0c0.52,-0.94 1.26,-1.41 2.20,-1.41 0.68,1e-5 1.18,0.19 1.48,0.57 0.31,0.38 0.47,0.97 0.48,1.77l0,11.73-3.04,0 0,-10.72c-9e-6,-0.27-0.04,-0.47-0.12,-0.6-0.06,-0.14-0.20,-0.21-0.43,-0.21-0.36,1e-5-0.55,0.27-0.55,0.81l0,10.72-3,0 0,-10.72c-5e-6,-0.27-0.04,-0.47-0.12,-0.6-0.06,-0.14-0.20,-0.21-0.43,-0.21-0.36,1e-5-0.55,0.27-0.55,0.81l0,10.72-3.02,0 0,-13.82"/>
<path d="m46.81,152.77 1.10,0 0,-2.61c-5e-6,-0.55-0.18,-0.83-0.55,-0.84-0.36,1e-5-0.55,0.28-0.55,0.84l0,2.61m0,5.76c-4e-6,0.56 0.18,0.84 0.55,0.84 0.36,0 0.55,-0.28 0.55,-0.84l0,-2.59 3.04,0 0,2.56c-8e-6,0.99-0.31,1.76-0.93,2.32-0.62,0.54-1.51,0.81-2.66,0.81-0.70,0-1.28,-0.08-1.75,-0.26-0.46,-0.16-0.83,-0.4-1.10,-0.72-0.27,-0.33-0.46,-0.74-0.57,-1.22-0.11,-0.49-0.16,-1.07-0.16,-1.72l0,-6.62c0,-0.65 0.05,-1.23 0.16,-1.72 0.11,-0.49 0.30,-0.90 0.57,-1.22 0.27,-0.33 0.63,-0.58 1.08,-0.74 0.46,-0.15 1.04,-0.23 1.75,-0.24 1.15,1e-5 2.03,0.26 2.66,0.79 0.63,0.52 0.95,1.25 0.96,2.18l0,4.70-4.15,0 0,3.69"/>
<path d="m51.92,147.49 3,0 0,1.15 0.04,0c0.51,-0.94 1.23,-1.41 2.18,-1.41 1.32,1e-5 1.99,0.78 1.99,2.35l0,11.73-3.07,0 0,-10.72c-5e-6,-0.27-0.04,-0.47-0.12,-0.6-0.06,-0.14-0.20,-0.21-0.43,-0.21-0.36,1e-5-0.55,0.27-0.55,0.81l0,10.72-3.04,0 0,-13.82"/>
<path d="m60.32,157.79 3.16,0 0,3.52-3.16,0 0,-3.52"/>
<path d="m65.15,149.68-0.74,0 0,-2.18 0.74,0 0,-1.32c-1e-6,-0.68 0.19,-1.21 0.6,-1.58 0.41,-0.36 0.98,-0.55 1.70,-0.55l1.72,0 0,2.16c-0.65,1e-5-0.98,0.18-0.98,0.55l0,0.74 0.98,0 0,2.18-0.98,0 0,11.64-3.04,0 0,-11.64"/>
<path d="m69.73,147.49 3,0 0,1.15 0.04,0c0.51,-0.94 1.23,-1.41 2.18,-1.41 1.32,1e-5 1.99,0.78 1.99,2.35l0,5.35-3.07,0 0,-4.34c-5e-6,-0.27-0.04,-0.47-0.12,-0.6-0.06,-0.14-0.20,-0.21-0.43,-0.21-0.36,1e-5-0.55,0.27-0.55,0.81l0,10.72-3.04,0 0,-13.82"/>
<path d="m80.66,152.77 1.10,0 0,-2.61c-5e-6,-0.55-0.18,-0.83-0.55,-0.84-0.36,1e-5-0.55,0.28-0.55,0.84l0,2.61m0,5.76c-4e-6,0.56 0.18,0.84 0.55,0.84 0.36,0 0.55,-0.28 0.55,-0.84l0,-2.59 3.04,0 0,2.56c-8e-6,0.99-0.31,1.76-0.93,2.32-0.62,0.54-1.51,0.81-2.66,0.81-0.70,0-1.28,-0.08-1.75,-0.26-0.46,-0.16-0.83,-0.4-1.10,-0.72-0.27,-0.33-0.46,-0.74-0.57,-1.22-0.11,-0.49-0.16,-1.07-0.16,-1.72l0,-6.62c0,-0.65 0.05,-1.23 0.16,-1.72 0.11,-0.49 0.30,-0.90 0.57,-1.22 0.27,-0.33 0.63,-0.58 1.08,-0.74 0.46,-0.15 1.04,-0.23 1.75,-0.24 1.15,1e-5 2.03,0.26 2.66,0.79 0.63,0.52 0.95,1.25 0.96,2.18l0,4.70-4.15,0 0,3.69"/>
<path d="m85.77,147.49 3.04,0 0,13.82-3.04,0 0,-13.82m0,-3.45 3.04,0 0,2.61-3.04,0 0,-2.61"/>
<path d="m90.32,149.68-0.74,0 0,-2.18 0.74,0 0,-1.32c-1e-6,-0.68 0.19,-1.21 0.6,-1.58 0.41,-0.36 0.98,-0.55 1.70,-0.55l1.72,0 0,2.16c-0.65,1e-5-0.98,0.18-0.98,0.55l0,0.74 0.98,0 0,2.18-0.98,0 0,11.64-3.04,0 0,-11.64"/>
<path d="m102.13,161.32-2.99,0 0,-1.15-0.07,0c-0.49,0.92-1.21,1.39-2.16,1.39-1.32,0-1.99,-0.77-1.99,-2.32l0,-11.73 3.04,0 0,10.72c-4e-6,0.27 0.04,0.48 0.12,0.62 0.08,0.12 0.23,0.19 0.45,0.19 0.35,0 0.52,-0.27 0.52,-0.81l0,-10.72 3.07,0 0,13.82"/>
<path d="m103.11,147.49 3,0 0,1.15 0.04,0c0.51,-0.94 1.23,-1.41 2.18,-1.41 1.32,1e-5 1.99,0.78 1.99,2.35l0,11.73-3.07,0 0,-10.72c-1e-5,-0.27-0.04,-0.47-0.12,-0.6-0.06,-0.14-0.20,-0.21-0.43,-0.21-0.36,1e-5-0.55,0.27-0.55,0.81l0,10.72-3.04,0 0,-13.82"/>
<path d="m111.31,144.04 3.04,0 0,9.48 0.04,0 1.29,-6.02 3.12,0-1.51,5.97 1.51,7.84-3.21,0-1.2,-7.24-0.04,0 0,7.24-3.04,0 0,-17.28"/>
<path d="m119.43,157.79 3.16,0 0,3.52-3.16,0 0,-3.52"/>
<path d="m123.78,147.49 3,0 0,1.15 0.04,0c0.51,-0.94 1.24,-1.41 2.18,-1.41 1.32,1e-5 1.99,0.78 1.99,2.35l0,11.73-3.07,0 0,-10.72c0,-0.27-0.04,-0.47-0.12,-0.6-0.06,-0.14-0.20,-0.21-0.43,-0.21-0.36,1e-5-0.55,0.27-0.55,0.81l0,10.72-3.04,0 0,-13.82"/>
<path d="m134.98,152.77 1.10,0 0,-2.61c-1e-5,-0.55-0.18,-0.83-0.55,-0.84-0.36,1e-5-0.55,0.28-0.55,0.84l0,2.61m0,5.76c0,0.56 0.18,0.84 0.55,0.84 0.36,0 0.55,-0.28 0.55,-0.84l0,-2.59 3.04,0 0,2.56c-1e-5,0.99-0.31,1.76-0.93,2.32-0.62,0.54-1.51,0.81-2.66,0.81-0.70,0-1.28,-0.08-1.75,-0.26-0.46,-0.16-0.83,-0.4-1.10,-0.72-0.27,-0.33-0.46,-0.74-0.57,-1.22-0.11,-0.49-0.16,-1.07-0.16,-1.72l0,-6.62c0,-0.65 0.05,-1.23 0.16,-1.72 0.11,-0.49 0.30,-0.90 0.57,-1.22 0.27,-0.33 0.63,-0.58 1.08,-0.74 0.46,-0.15 1.04,-0.23 1.75,-0.24 1.15,1e-5 2.03,0.26 2.66,0.79 0.63,0.52 0.95,1.25 0.96,2.18l0,4.70-4.15,0 0,3.69"/>
<path d="m139.61,147.49 0.76,0 0,-2.56 3.07,0 0,2.56 0.88,0 0,2.20-0.88,0 0,8.4c0,0.36 0.04,0.62 0.12,0.76 0.08,0.14 0.30,0.21 0.67,0.21l0.09,0 0,2.23-1.92,0c-0.43,0-0.78,-0.04-1.05,-0.14-0.25,-0.11-0.46,-0.27-0.62,-0.48-0.14,-0.20-0.24,-0.46-0.28,-0.76-0.04,-0.30-0.07,-0.64-0.07,-1.03l0,-9.19-0.76,0 0,-2.20"/>
</g>
</svg>
