<?xml version="1.0" encoding="UTF-8" standalone="no"?>
<svg width="146" xmlns="http://www.w3.org/2000/svg" viewBox="0 0 146.33113 161.65897" version="1.2" height="162">
<path fill="#ffb400" d="m45.3 28c0.0437-0.0376 0.0463-0.046 0.0253-0.0851-0.027-0.0505-0.402-0.426-0.53-0.531-0.0481-0.0394-0.125-0.106-0.171-0.149-0.0794-0.0734-0.236-0.149-0.308-0.149-0.0182 0-0.0423 0.011-0.0534 0.0244-0.0403 0.0486 0.26 0.301 0.358 0.301 0.0218 0 0.055 0.0597 0.055 0.0991 0 0.0429 0.064 0.176 0.102 0.212 0.113 0.108 0.197 0.176 0.217 0.176 0.0124 0 0.0527 0.0325 0.0894 0.0722 0.0785 0.0849 0.142 0.0938 0.216 0.0304zm-7.2-21.5c-0.233 0.036-0.413 0.339-0.75 0.25-0.602 0.616 0.82 0.269 0.969 0.75-0.475 0.019-0.971 0.016-1.44 0.125-0.45 0.179-0.878 0.415-1.28 0.688-0.843 0.53-1.42 1.36-2.06 2.09-0.33 0.75-0.862 0.0944-1.25-0.219-0.53-0.332-1.03-0.695-1.62-0.906-0.567-0.429-1.34-0.41-2-0.281-0.588 0.117-1.17 0.343-1.53 0.844-0.582 0.492-0.783 1.25-0.875 1.97-0.0321 0.432-0.0505 1.66 0.625 1.34 0.0961-0.643-0.0276-1.3 0.156-1.94 0.24-0.569 0.732-1.09 1.34-1.25 0.569-0.321 0.592 0.561 0.0625 0.625-0.708 0.269-1.03 1.08-1.09 1.78-0.0703 0.543-0.141 1.17 0.156 1.66 0.301 0.47 0.301-0.231 0.562-0.125 0.432-0.578 0.323 0.273 0.469 0.625 0.781 0.493 0.289-0.767 0.75-1.03 0.128-0.348 0.138-1.49 0.656-1.19 0.636 0.5 1.19 1.11 1.75 1.69 0.243 0.486 0.702 0.755 1.22 0.938-0.26 0.444 0.269 1.1-0.0938 1.44-0.264-0.0369-1.08 0.583-0.406 0.312 0.28 0.191 0.99 0.46 0.688 0.75-0.541 0.0581-1.06 0.229-1.56 0.438-0.571 0.123-1.06 0.476-1.59 0.625-0.559-0.254-1.1-0.564-1.66-0.812-0.596-0.292-1.36-0.254-1.88 0.188-0.54 0.364-0.579 1.07-0.5 1.66 0.208 0.925 0.33 1.87 0.688 2.75 0.165 0.421 0.308 1.46 0.938 0.875 0.0589-0.913-0.177-1.82-0.312-2.72-0.0162-0.349-0.121-0.732-0.0312-1.06 0.368-0.535 1.06-0.243 1.47 0.0625 0.497 0.125 0.244 0.419 0.188 0.75 0.0675 0.571-0.297 1.11-0.438 1.66-0.237 0.566-0.387 1.17-0.812 1.62-0.132 0.722-0.111 1.49-0.0312 2.22-1.14 0.152-2.07 1.11-3.25 1.09-1.1-0.0335-1.75-1.35-1.06-2.22 0.78-0.94-0.836-0.335-0.812 0.312-0.517 1.09 0.142 2.66 1.41 2.81 0.487 0.292 1.48-0.337 1.66 0.312 0.0184 1.09 0.1 2.26-0.344 3.28-0.229 1.07-1.84 0.851-1.94 1.84-0.282 0.632-0.171 1.78-0.221 2.67-0.706 0.287-1.09 0.708-1.72 1.14-0.869 0.622-1.61 1.48-1.81 2.56-0.32 1.31 0.199 2.62 0.219 3.94 0.138 1.11-0.0326 2.27-0.562 3.25-0.117 0.525-1.86 1.81-0.531 1.62 1.08-0.457 1.5-1.7 1.78-2.75 0.201-1.53-0.0721-3.08 0.125-4.62 0.335 1.24 0.495 2.52 0.531 3.81-0.127 1.23-0.477 2.58-1.53 3.34-1.05 0.553-0.752 1.9-0.969 2.88-0.181 1.02-0.351 2.04-0.656 3.03-0.818 1.14 0.539 1.67 0.906 2.56-0.321 0.983 0.642 0.934 1.31 0.906 0.887 0.385 0.779-0.407 0.5-0.969 0.11-0.972-1.14-1.58-0.656-2.62 0.251-1.84 1.19-3.49 2.06-5.09 0.454-0.554 0.716-1.22 1.16-1.78 0.574-0.631 0.997-1.39 1.59-2 0.443-0.795 0.955 0.454 1.44-0.281 0.719 0.34 1.33 0.86 2.06 1.19 0.84 0.411 1.71 0.756 2.62 0.969 1.39 0.0856 2.8-0.0416 4.16-0.344 1.47-0.227 2.9-0.657 4.38-0.781 0.428 1.44 0.633 2.95 1 4.41 0.459 1.03 0.692 2.13 0.812 3.25-0.32 1.05 0.876 1.07 1.06 1.84-0.318 0.989 1.69 1.09 1.44 0.25 0.0425 0.488 0.227 1.04 0.969 0.844 0.975 0.287 0.771-0.322 0.438-0.938-0.555-0.929-1.85-1.42-1.78-2.78-0.286-0.989-0.37-2.01-0.344-3.03-0.466-1.69-0.737-3.44-0.812-5.19 0.538-0.884 0.938-1.85 1.44-2.75 0.519-0.902 1.51-1.4 2.47-1.72 0.563-0.247 1.37-0.376 1.84 0.0625 0.626 1.17 1.98 1.49 3.16 1.75 0.851-0.244 1.46 0.88 2.28 0.344-0.318-0.175-1.12-1.68-0.312-1 1.07 1.48 1.42-0.97 0.625-1.53-0.641-0.818-1.56-1.63-1.56-2.75-0.365-0.851-1.06-1.49-1.75-2.09-1.09-0.286 0.43-1.22 0.625-1.81 0.567-0.674 0.988-1.45 1.47-2.19 0.469-1.12-0.8-0.133-1 0.281-0.688 0.723 0.29-0.598-0.0859-0.836-0.659 0.0033-1.47 1.75-2.23 2.21-0.735-0.545-2.12-0.0432-3.12 0.188-1.13 0.196-2.2 0.623-3.28 0.969-0.781 0.281-1.56 0.569-2.34 0.844-0.466-1.2-0.603-2.52-0.594-3.81 0.117-0.665 0.327-1.36 0.75-1.91 0.685-0.666 1.65-1.3 2.66-1.09 0.854-0.0079 1.4 1.55 2.22 0.938-0.332-0.555 0.17-0.312 0.562-0.344 1.02-0.149 0.35-0.818-0.0938-1.25-0.86-0.481-0.817-1.53-1.47-2.16-0.956-0.608 0.121-1.34 0.281-2.09 0.439-1.37-0.743 0.0578-1.12 0.375-0.692 0.718-1.55 1.19-2.5 1.47-0.906 0.465-1.82 0.927-2.78 1.25-0.0582-0.375-0.654-0.49-0.656-1-0.125-0.559-0.22-1.15-0.312-1.72-0.0197-0.528-0.246-1.16 0.219-1.56 0.455-0.589 1.05-1.07 1.69-1.44 0.298-0.0567 0.641-0.069 0.906-0.281-0.0669-0.395 0.0803-0.972-0.25-1.34-0.28-0.451-0.72-0.905-1.31-0.75-0.657 0.255-1.27 0.632-1.88 1-0.387-0.0511-0.916 0.151-1.12-0.281-0.175-0.401-0.369-0.694-0.875-0.75-0.702-0.134-0.253-0.247-0.5-0.656 0.0258-0.667-0.104-1.37 0.156-2 0.354-0.548 0.97-0.898 1.31-1.47 0.353-0.56 0.804-1.06 1.09-1.66 0.162-0.589 0.0031-1.22 0.156-1.81 0.0768-0.583 0.416-1.13 0.969-1.38 0.605-0.462 0.82 0.277 0.812 0.75 0.0594 0.855 1.21 0.329 0.844-0.344 0.246 0.277 0.373 0.224 0.156-0.125-0.301-0.371-0.000454-0.228 0.219-0.0625 0.458 0.593 0.117-0.425-0.125-0.594 0.494-0.101 0.551-0.634 0.156-0.938-0.348 0.119-0.282-0.112-0.406-0.375-0.143-0.412-0.338 0.02-0.5-0.156-0.181-0.393-0.529-0.146-0.719-0.219-0.095-0.0698-0.172-0.106-0.25-0.0938zm-9.12 4.75c0.607 0.295-0.261 0.617-0.406 0.938-0.217 0.304 0.142-0.948 0.406-0.938zm3.81 5.25c0.129-0.0653 0.317-0.019 0.25 0.281 0.0555 0.146-0.0713 0.086-0.156 0.0938-0.295-0.115-0.223-0.31-0.0938-0.375zm0.938 5.66c0.3-0.0091 0.594 0.01 0.875 0.125 0.595 0.188 0.577 0.986 0.844 1.47 0.332 0.614 0.202 1.29-0.0625 1.88 0.121 0.765 0.914 0.0897 0.875-0.406 0.249-0.474 0.181-1.02 0.125-1.53 0.13 0.0841 0.432 0.84 0.594 1.16 0.0143 0.508 0.707 0.639 0.438 1.16-0.909 0.509-2.56 0.462-3.56 0.219-1.65-0.249-3.29-0.569-4.97-0.562-0.224-0.642-0.292-0.82 0.0938-1.41 0.349-0.539 0.925-0.824 1.47-1.12 0.739-0.422 1.54-0.729 2.38-0.906 0.292-0.0316 0.606-0.0534 0.906-0.0625zm-3.72 7.72c0.355-0.0379 0.893 0.321 1.22 0.531 0.978 0.74 2.04 1.51 3.31 1.59 0.941 0.0833 1.89-0.0592 2.81-0.0938 0.497 1.12 0.849 2.29 1.28 3.44 0.0085 0.0023-0.504 0.405-0.688 0.531-1.05 0.734-2.3 0.926-3.56 0.875-0.909 0.0646-1.81-0.066-2.72-0.0938-1.61-0.01-3.16-0.415-4.72-0.75 0.0078-0.136 0.16-0.0402-0.406-0.344-0.583-0.674-0.51-2.08 0.438-2.47 1.14-0.543 2.13-1.45 2.69-2.59-0.0084-0.425 0.131-0.602 0.344-0.625zm-5.12 3.5c0.3 0.369 0.458 1.52 0.531 2.19-0.065 0.131-1.42-0.0138-1.69 0 0.404-0.557 0.22-1.84 1.16-2.19zm17.1 18.5c0.001-0.0641 0.0085-0.0664 0.0625 0.0938 0.0334 0.0993 0.0722 0.259 0.0938 0.344 0.0215 0.0844 0.0506 0.168 0.0625 0.188 0.0587 0.0977 0.281 1.01 0.281 1.16-0.00001 0.0456-0.0174 0.0497-0.0625 0-0.0727-0.0801-0.119-0.148-0.156-0.344-0.0456-0.238-0.124-0.707-0.188-0.969-0.0833-0.343-0.0948-0.396-0.0938-0.469z" fill-rule="evenodd"/>
<circle stroke-width="1.15" transform="matrix(-1.48 0 0 1.51 86.6 -47.4)" stroke="#dc0067" cy="54" cx="36" r="22" fill="none"/>
<circle stroke-width="1.15" transform="matrix(1.48 0 0 1.51 -15.1 11)" stroke="#dc0067" cy="54" cx="36" r="22" fill="none"/>
<polygon points="30 48 22 48 22 52 30 52 26 56 31 56 37 50 31 44 26 44" transform="matrix(1.45 0 0 1.37 -14.7 16)" fill="#ffb400"/>
<polygon points="88 53 88 47 75 47 81 41 73 41 64 50 73 59 81 59 75 53" transform="matrix(1.52 0 0 1.57 -17.3 6.24)" fill="#ffb400"/>
<circle stroke-width="1.06" transform="matrix(1.6 0 0 1.62 -22.1 4.29)" stroke="#dc0067" cy="44" cx="74" r="22" fill="none"/>
<g fill="#fff">
<path d="m11.5 151c-0.000005-0.272-0.04-0.472-0.12-0.6-0.064-0.144-0.208-0.216-0.432-0.216-0.368 0.00001-0.552 0.272-0.552 0.816v7.7c-0.000004 0.56 0.184 0.84 0.552 0.84 0.224 0 0.368-0.072 0.432-0.216 0.08-0.144 0.12-0.352 0.12-0.624v-7.7m-4.15-6.55h3.05v4.61h0.048c0.464-0.944 1.18-1.42 2.14-1.42 1.33 0.00001 1.99 0.784 1.99 2.35v9.74c-0.000008 1.55-0.664 2.33-1.99 2.33-1.06 0-1.78-0.512-2.18-1.54h-0.048v1.2h-3v-17.3"/>
<path d="m15.6 147h3v1.15h0.048c0.512-0.944 1.24-1.42 2.18-1.42 1.33 0.00001 1.99 0.784 1.99 2.35v5.35h-3.07v-4.34c-0.000005-0.272-0.04-0.472-0.12-0.6-0.064-0.144-0.208-0.216-0.432-0.216-0.368 0.00001-0.552 0.272-0.552 0.816v10.7h-3.05v-13.8"/>
<path d="m26.5 153h1.1v-2.62c-0.000005-0.56-0.184-0.84-0.552-0.84-0.368 0.00001-0.552 0.28-0.552 0.84v2.62m0 5.76c-0.000004 0.56 0.184 0.84 0.552 0.84s0.552-0.28 0.552-0.84v-2.59h3.05v2.57c-0.000008 0.992-0.312 1.77-0.936 2.33-0.624 0.544-1.51 0.816-2.66 0.816-0.704 0-1.29-0.088-1.75-0.264-0.464-0.16-0.832-0.4-1.1-0.72-0.272-0.336-0.464-0.744-0.576-1.22-0.112-0.496-0.168-1.07-0.168-1.73v-6.62c0-0.656 0.056-1.23 0.168-1.73 0.112-0.496 0.304-0.904 0.576-1.22 0.272-0.336 0.632-0.584 1.08-0.744 0.464-0.16 1.05-0.24 1.75-0.24 1.15 0.00001 2.04 0.264 2.66 0.792 0.64 0.528 0.96 1.26 0.96 2.18v4.7h-4.15v3.7"/>
<path d="m31.6 147h2.98v1.15h0.048c0.48-0.944 1.21-1.42 2.18-1.42 0.928 0.00001 1.54 0.472 1.85 1.42h0.048c0.528-0.944 1.26-1.42 2.21-1.42 0.688 0.00001 1.18 0.192 1.49 0.576 0.32 0.384 0.48 0.976 0.48 1.78v11.7h-3.05v-10.7c-0.000009-0.272-0.04-0.472-0.12-0.6-0.064-0.144-0.208-0.216-0.432-0.216-0.368 0.00001-0.552 0.272-0.552 0.816v10.7h-3v-10.7c-0.000005-0.272-0.04-0.472-0.12-0.6-0.064-0.144-0.208-0.216-0.432-0.216-0.368 0.00001-0.552 0.272-0.552 0.816v10.7h-3.02v-13.8"/>
<path d="m46.8 153h1.1v-2.62c-0.000005-0.56-0.184-0.84-0.552-0.84-0.368 0.00001-0.552 0.28-0.552 0.84v2.62m0 5.76c-0.000004 0.56 0.184 0.84 0.552 0.84s0.552-0.28 0.552-0.84v-2.59h3.05v2.57c-0.000008 0.992-0.312 1.77-0.936 2.33-0.624 0.544-1.51 0.816-2.66 0.816-0.704 0-1.29-0.088-1.75-0.264-0.464-0.16-0.832-0.4-1.1-0.72-0.272-0.336-0.464-0.744-0.576-1.22-0.112-0.496-0.168-1.07-0.168-1.73v-6.62c0-0.656 0.056-1.23 0.168-1.73 0.112-0.496 0.304-0.904 0.576-1.22 0.272-0.336 0.632-0.584 1.08-0.744 0.464-0.16 1.05-0.24 1.75-0.24 1.15 0.00001 2.04 0.264 2.66 0.792 0.64 0.528 0.96 1.26 0.96 2.18v4.7h-4.15v3.7"/>
<path d="m51.9 147h3v1.15h0.048c0.512-0.944 1.24-1.42 2.18-1.42 1.33 0.00001 1.99 0.784 1.99 2.35v11.7h-3.07v-10.7c-0.000005-0.272-0.04-0.472-0.12-0.6-0.064-0.144-0.208-0.216-0.432-0.216-0.368 0.00001-0.552 0.272-0.552 0.816v10.7h-3.05v-13.8"/>
<path d="m60.3 158h3.17v3.53h-3.17v-3.53"/>
<path d="m65.2 150h-0.744v-2.18h0.744v-1.32c-0.000001-0.688 0.2-1.22 0.6-1.58 0.416-0.368 0.984-0.552 1.7-0.552h1.73v2.16c-0.656 0.00001-0.984 0.184-0.984 0.552v0.744h0.984v2.18h-0.984v11.6h-3.05v-11.6"/>
<path d="m69.7 147h3v1.15h0.048c0.512-0.944 1.24-1.42 2.18-1.42 1.33 0.00001 1.99 0.784 1.99 2.35v5.35h-3.07v-4.34c-0.000005-0.272-0.04-0.472-0.12-0.6-0.064-0.144-0.208-0.216-0.432-0.216-0.368 0.00001-0.552 0.272-0.552 0.816v10.7h-3.05v-13.8"/>
<path d="m80.7 153h1.1v-2.62c-0.000005-0.56-0.184-0.84-0.552-0.84-0.368 0.00001-0.552 0.28-0.552 0.84v2.62m0 5.76c-0.000004 0.56 0.184 0.84 0.552 0.84s0.552-0.28 0.552-0.84v-2.59h3.05v2.57c-0.000008 0.992-0.312 1.77-0.936 2.33-0.624 0.544-1.51 0.816-2.66 0.816-0.704 0-1.29-0.088-1.75-0.264-0.464-0.16-0.832-0.4-1.1-0.72-0.272-0.336-0.464-0.744-0.576-1.22-0.112-0.496-0.168-1.07-0.168-1.73v-6.62c0-0.656 0.056-1.23 0.168-1.73 0.112-0.496 0.304-0.904 0.576-1.22 0.272-0.336 0.632-0.584 1.08-0.744 0.464-0.16 1.05-0.24 1.75-0.24 1.15 0.00001 2.04 0.264 2.66 0.792 0.64 0.528 0.96 1.26 0.96 2.18v4.7h-4.15v3.7"/>
<path d="m85.8 147h3.05v13.8h-3.05v-13.8m0-3.46h3.05v2.62h-3.05v-2.62"/>
<path d="m90.3 150h-0.744v-2.18h0.744v-1.32c-0.000001-0.688 0.2-1.22 0.6-1.58 0.416-0.368 0.984-0.552 1.7-0.552h1.73v2.16c-0.656 0.00001-0.984 0.184-0.984 0.552v0.744h0.984v2.18h-0.984v11.6h-3.05v-11.6"/>
<path d="m102 161h-3v-1.15h-0.072c-0.496 0.928-1.22 1.39-2.16 1.39-1.33 0-1.99-0.776-1.99-2.33v-11.7h3.05v10.7c-0.000004 0.272 0.04 0.48 0.12 0.624 0.08 0.128 0.232 0.192 0.456 0.192 0.352 0 0.528-0.272 0.528-0.816v-10.7h3.07v13.8"/>
<path d="m103 147h3v1.15h0.048c0.512-0.944 1.24-1.42 2.18-1.42 1.33 0.00001 1.99 0.784 1.99 2.35v11.7h-3.07v-10.7c-0.00001-0.272-0.04-0.472-0.12-0.6-0.064-0.144-0.208-0.216-0.432-0.216-0.368 0.00001-0.552 0.272-0.552 0.816v10.7h-3.05v-13.8"/>
<path d="m111 144h3.05v9.48h0.048l1.3-6.02h3.12l-1.51 5.98 1.51 7.85h-3.22l-1.2-7.25h-0.048v7.25h-3.05v-17.3"/>
<path d="m119 158h3.17v3.53h-3.17v-3.53"/>
<path d="m124 147h3v1.15h0.048c0.512-0.944 1.24-1.42 2.18-1.42 1.33 0.00001 1.99 0.784 1.99 2.35v11.7h-3.07v-10.7c0-0.272-0.04-0.472-0.12-0.6-0.064-0.144-0.208-0.216-0.432-0.216-0.368 0.00001-0.552 0.272-0.552 0.816v10.7h-3.05v-13.8"/>
<path d="m135 153h1.1v-2.62c-0.00001-0.56-0.184-0.84-0.552-0.84-0.368 0.00001-0.552 0.28-0.552 0.84v2.62m0 5.76c0 0.56 0.184 0.84 0.552 0.84s0.552-0.28 0.552-0.84v-2.59h3.05v2.57c-0.00001 0.992-0.312 1.77-0.936 2.33-0.624 0.544-1.51 0.816-2.66 0.816-0.704 0-1.29-0.088-1.75-0.264-0.464-0.16-0.832-0.4-1.1-0.72-0.272-0.336-0.464-0.744-0.576-1.22-0.112-0.496-0.168-1.07-0.168-1.73v-6.62c0-0.656 0.056-1.23 0.168-1.73 0.112-0.496 0.304-0.904 0.576-1.22 0.272-0.336 0.632-0.584 1.08-0.744 0.464-0.16 1.05-0.24 1.75-0.24 1.15 0.00001 2.04 0.264 2.66 0.792 0.64 0.528 0.96 1.26 0.96 2.18v4.7h-4.15v3.7"/>
<path d="m140 147h0.768v-2.57h3.07v2.57h0.888v2.21h-0.888v8.4c0 0.368 0.04 0.624 0.12 0.768s0.304 0.216 0.672 0.216h0.096v2.23h-1.92c-0.432 0-0.784-0.048-1.06-0.144-0.256-0.112-0.464-0.272-0.624-0.48-0.144-0.208-0.24-0.464-0.288-0.768s-0.072-0.648-0.072-1.03v-9.19h-0.768v-2.21"/>
</g>
<circle stroke-width="5.81" transform="matrix(1.58 0 0 1.6 -21.4 5.33)" stroke="#dc0067" cy="44" cx="74" r="29" fill="none"/>
</svg>
