<?xml version="1.0" encoding="UTF-8" standalone="no"?>
<!-- Created with Inkscape (http://www.inkscape.org/) -->

<svg
   xmlns:dc="http://purl.org/dc/elements/1.1/"
   xmlns:cc="http://creativecommons.org/ns#"
   xmlns:rdf="http://www.w3.org/1999/02/22-rdf-syntax-ns#"
   xmlns:svg="http://www.w3.org/2000/svg"
   xmlns="http://www.w3.org/2000/svg"
   xmlns:sodipodi="http://sodipodi.sourceforge.net/DTD/sodipodi-0.dtd"
   xmlns:inkscape="http://www.inkscape.org/namespaces/inkscape"
   version="1.1"
   width="351.19583"
   height="160.27705"
   viewBox="0 0 351.29238 160.28897"
   id="svg2"
   inkscape:version="0.48.4 r9939"
   sodipodi:docname="skyline.svg"
   inkscape:export-filename="/home/jplitza/Code/web/bremen.freifunk.net/images/logo/skyline.png"
   inkscape:export-xdpi="63.451176"
   inkscape:export-ydpi="63.451176">
  <sodipodi:namedview
     pagecolor="#ffffff"
     bordercolor="#666666"
     borderopacity="1"
     objecttolerance="10"
     gridtolerance="10"
     guidetolerance="10"
     inkscape:pageopacity="0"
     inkscape:pageshadow="2"
     inkscape:window-width="1680"
     inkscape:window-height="1007"
     id="namedview30"
     showgrid="false"
     inkscape:zoom="4.5834653"
     inkscape:cx="87.585919"
     inkscape:cy="80.06881"
     inkscape:window-x="0"
     inkscape:window-y="25"
     inkscape:window-maximized="1"
     inkscape:current-layer="svg2"
     fit-margin-top="0"
     fit-margin-left="0"
     fit-margin-right="0"
     fit-margin-bottom="0" />
  <defs
     id="defs4">
    <clipPath
       id="clipPath3774">
      <path
         d="m 48.348944,68.805848 38.568367,0 0,-19.537172 11.200181,0 0,-28.240096 -50.67179,0 z"
         id="path3776"
         style="fill:none;stroke:#000000;stroke-width:1px;stroke-linecap:butt;stroke-linejoin:miter;stroke-opacity:1"
         inkscape:connector-curvature="0" />
    </clipPath>
    <clipPath
       id="clipPath3792">
      <rect
         width="50.73716"
         height="39.132233"
         x="50.065525"
         y="18.389868"
         id="rect3794"
         style="fill:#000344;fill-opacity:1;fill-rule:nonzero;stroke:#ffffff;stroke-width:5;stroke-miterlimit:4;stroke-opacity:1;stroke-dasharray:none;stroke-dashoffset:0" />
    </clipPath>
  </defs>
  <metadata
     id="metadata7">
    <rdf:RDF>
      <cc:Work
         rdf:about="">
        <dc:format>image/svg+xml</dc:format>
        <dc:type
           rdf:resource="http://purl.org/dc/dcmitype/StillImage" />
        <dc:title></dc:title>
      </cc:Work>
    </rdf:RDF>
  </metadata>
  <path
     sodipodi:type="arc"
     style="fill:none;stroke:#dc0067;stroke-width:1.6527164;stroke-miterlimit:4;stroke-opacity:1;stroke-dasharray:none;stroke-dashoffset:0"
     id="path3179"
     sodipodi:cx="103.96064"
     sodipodi:cy="101.64128"
     sodipodi:rx="27.162855"
     sodipodi:ry="27.162855"
     d="m 86.500694,122.44924 a 27.162855,27.162855 0 1 1 34.919896,-1e-5"
     transform="matrix(1.0338279,0,0,1.0348513,-26.555887,29.095536)"
     sodipodi:start="2.268928"
     sodipodi:end="7.1558499"
     sodipodi:open="true" />
  <circle
     sodipodi:ry="29"
     sodipodi:rx="29"
     sodipodi:cy="44"
     sodipodi:cx="74"
     d="M 103,44 C 103,60.016258 90.016258,73 74,73 57.983742,73 45,60.016258 45,44 45,27.983742 57.983742,15 74,15 c 16.016258,0 29,12.983742 29,29 z"
     style="fill:none;stroke:#dc0067;stroke-width:5.06003237;stroke-miterlimit:4;stroke-opacity:1;stroke-dasharray:none"
     id="circle4009"
     transform="matrix(1.8184664,0,0,1.8360981,-0.403592,-22.941234)"
     r="29"
     cy="44"
     cx="74" />
  <circle
     sodipodi:ry="22"
     sodipodi:rx="22"
     sodipodi:cy="44"
     sodipodi:cx="74"
     d="M 96,44 C 96,56.150264 86.150264,66 74,66 61.849736,66 52,56.150264 52,44 52,31.849736 61.849736,22 74,22 c 12.150264,0 22,9.849736 22,22 z"
     style="fill:none;stroke:#dc0067;stroke-width:0.92495251;stroke-miterlimit:4;stroke-opacity:1;stroke-dasharray:none"
     id="circle4062"
     transform="matrix(1.8321592,0,0,1.8632969,-1.41686,-24.137984)"
     r="22"
     cy="44"
     cx="74" />
  <circle
     sodipodi:ry="22"
     sodipodi:rx="22"
     sodipodi:cy="44"
     sodipodi:cx="74"
     d="M 96,44 C 96,56.150264 86.150264,66 74,66 61.849736,66 52,56.150264 52,44 52,31.849736 61.849736,22 74,22 c 12.150264,0 22,9.849736 22,22 z"
     style="fill:none;stroke:#dc0067;stroke-width:3.15819168;stroke-miterlimit:4;stroke-opacity:1;stroke-dasharray:none"
     id="circle4224"
     clip-path="url(#clipPath3792)"
     transform="matrix(1.5699068,0,0,1.5965744,125.07038,27.099959)"
     r="22"
     cy="44"
     cx="74" />
  <circle
     sodipodi:ry="22"
     sodipodi:rx="22"
     sodipodi:cy="44"
     sodipodi:cx="74"
     d="M 96,44 C 96,56.150264 86.150264,66 74,66 61.849736,66 52,56.150264 52,44 52,31.849736 61.849736,22 74,22 c 12.150264,0 22,9.849736 22,22 z"
     style="fill:none;stroke:#dc0067;stroke-width:1.22982466;stroke-miterlimit:4;stroke-opacity:1;stroke-dasharray:none"
     id="circle4011"
     clip-path="url(#clipPath3774)"
     transform="matrix(1.3778969,0,0,1.4014611,85.772363,49.765677)"
     r="22"
     cy="44"
     cx="74" />
  <path
     inkscape:connector-curvature="0"
     style="fill:#000000;fill-opacity:1;stroke:none"
     id="path4142"
     d="m 209.80899,114.30368 -3.67862,3.67858 -1.12456,0 0,36.34319 1.15899,0 0,-4.57685 4.47224,0 0,4.57685 57.54483,0 0,-4.57685 4.47223,0 0,4.57685 1.15845,-3.5e-4 0,-36.3432 -1.12412,3.6e-4 -3.67852,-3.67858 -3.67851,3.67858 -1.10013,0 -3.67863,-3.67858 -3.67862,3.67858 -1.10014,0 -3.67852,-3.67858 -3.67851,3.67858 -1.10013,0 -3.67863,-3.67858 -3.67862,3.67858 -1.10014,0 -3.67851,-3.67858 -3.67852,3.67858 -1.10013,0 -3.67863,-3.67858 -3.67862,3.67858 -1.10014,0 -3.67851,-3.67858 -3.67852,3.67858 -1.10013,0 z m -3.67862,6.01636 7.35725,0 0,27.57209 -7.35725,0 z m 8.45738,0 7.35703,0 0,27.57209 -7.35703,0 z m 8.45717,0 7.35725,0 0,27.57209 -7.35725,0 z m 8.45738,0 7.35703,0 0,27.57209 -7.35703,0 z m 8.45717,0 7.35725,0 0,27.57209 -7.35725,0 z m 8.45738,0 7.35703,0 0,27.57209 -7.35703,0 z m 8.45717,0 7.35725,0 0,27.57209 -7.35725,0 z m 8.45738,0 7.35703,0 0,27.57209 -7.35703,0 z m -58.926,0.27503 0,26.98764 6.80718,0 0,-26.98764 z m 8.45739,0 0,26.98764 6.80696,0 0,-26.98764 z m 8.45716,0 0,26.98764 6.80718,0 0,-26.98764 z m 8.45738,0 0,26.98764 6.80697,0 0,-26.98764 z m 8.45717,0 0,26.98764 6.80718,0 0,-26.98764 z m 8.45738,0 0,26.98764 6.80697,0 0,-26.98764 z m 8.45717,0 0,26.98764 6.80718,0 0,-26.98764 z m 8.45738,0 0,26.98764 6.80696,0 0,-26.98764 z" />
  <path
     inkscape:connector-curvature="0"
     style="fill:#000000;fill-opacity:1;stroke:none"
     id="path3972"
     d="m 117.97008,25.244786 0,2.112109 -1.9801,0 0,0.704036 1.9801,0 0,1.980102 c -0.55311,0.151157 -0.96805,0.653001 -0.96805,1.254065 0,0.601064 0.41494,1.124909 0.96805,1.276066 l 0,1.232063 -8.22842,31.813642 0,53.286751 -7.10637,0 0,-2.0241 1.8701,0 0,-0.70404 -1.8701,0 0,-2.0021 -0.70403,0 0,2.0021 -1.8701,0 0,0.70404 1.8701,0 0,2.0241 -4.290217,16.03883 0,19.383 36.521877,0 36.52188,0 0,-19.383 -4.29022,-16.03883 0,-2.0241 1.8701,0 0,-0.70404 -1.8701,0 0,-2.0021 -0.70403,0 0,2.0021 -1.8701,0 0,0.70404 1.8701,0 0,2.0241 -7.10637,0 0,-53.286751 -8.22842,-31.813642 0,-1.232063 c 0.55311,-0.151157 0.96805,-0.675002 0.96805,-1.276066 0,-0.601064 -0.41494,-1.102908 -0.96805,-1.254065 l 0,-1.980102 1.9801,0 0,-0.704036 -1.9801,0 0,-2.112109 -0.70404,0 0,2.112109 -1.9801,0 0,0.704036 1.9801,0 0,2.002103 c -0.54045,0.159317 -0.94605,0.640005 -0.94605,1.232064 0,0.592059 0.4056,1.094748 0.94605,1.254065 l 0,1.254064 -8.20642,31.813642 0,40.174071 -5.08227,0 -2.20011,-3.82819 -2.20011,3.82819 -5.08227,0 0,-40.174071 -8.20642,-31.813642 0,-1.254064 c 0.54045,-0.159317 0.94605,-0.662006 0.94605,-1.254065 0,-0.592059 -0.4056,-1.072747 -0.94605,-1.232064 l 0,-2.002103 1.9801,0 0,-0.704036 -1.9801,0 0,-2.112109 z" />
  <g
     id="g3778"
     transform="matrix(0.70403633,0,0,0.70403633,49.590563,-293.83497)">
    <circle
       sodipodi:ry="22"
       sodipodi:rx="22"
       sodipodi:cy="44"
       sodipodi:cx="74"
       d="M 96,44 C 96,56.150264 86.150264,66 74,66 61.849736,66 52,56.150264 52,44 52,31.849736 61.849736,22 74,22 c 12.150264,0 22,9.849736 22,22 z"
       style="fill:none;stroke:#dc0067;stroke-width:1.22982466;stroke-miterlimit:4;stroke-opacity:1;stroke-dasharray:none"
       id="circle4048"
       transform="matrix(1.9571389,0,0,1.990609,239.43256,475.85146)"
       r="22"
       cy="44"
       cx="74" />
    <path
       inkscape:connector-curvature="0"
       style="fill:#000000;fill-opacity:1;stroke:none"
       id="path4013"
       d="m 380.49521,567.68365 0,8.6875 -6.1875,0 0,9.21875 -6.4375,0 0,11.625 -4.4375,0 0,5.4375 -11.875,0 0,33.90625 32.71875,0 32.6875,0 0,-33.90625 -11.84375,0 0,-5.4375 -4.4375,0 0,-11.625 -6.4375,0 0,-9.21875 -6.1875,0 0,-8.6875 -3.78125,0 -3.78125,0 z" />
  </g>
  <g
     id="g3782"
     transform="matrix(0.70403633,0,0,0.70403633,49.590563,-293.4616)">
    <circle
       sodipodi:ry="22"
       sodipodi:rx="22"
       sodipodi:cy="44"
       sodipodi:cx="74"
       d="M 96,44 C 96,56.150264 86.150264,66 74,66 61.849736,66 52,56.150264 52,44 52,31.849736 61.849736,22 74,22 c 12.150264,0 22,9.849736 22,22 z"
       style="fill:none;stroke:#dc0067;stroke-width:1.22982466;stroke-miterlimit:4;stroke-opacity:1;stroke-dasharray:none"
       id="circle4060"
       transform="matrix(1.9571389,0,0,1.990609,191.06963,421.30318)"
       r="22"
       cy="44"
       cx="74" />
    <path
       inkscape:connector-curvature="0"
       style="fill:#000000;fill-opacity:1;stroke:none"
       id="path4129"
       d="m 335.44302,457.79507 -0.48165,8.88375 -1.65901,0 0,1.33791 1.65901,0 0,15.73386 -2.30121,0 0,1.39144 2.30121,0 0,20.87144 -4.01374,0 0,1.39143 4.01374,0 -0.53517,43.08081 c 0,0 -7.65286,-0.0339 -7.65286,1.92659 0,1.96054 7.27825,1.92661 7.27825,1.92661 l -0.37462,3.47857 c 0,0 -9.41891,0.0306 -9.41891,2.46176 0,2.43131 9.0443,2.46176 9.0443,2.46176 l -0.3211,2.88989 c 0,0 -10.38221,0.69046 -10.38221,2.67583 0,2.03032 10.00759,2.67582 10.00759,2.67582 l -0.37461,2.14067 c 0,0 -19.15892,1.32207 -19.15892,5.13758 0,3.81554 18.51672,10.6498 18.51672,10.6498 l 0,47.14806 4.33484,0 4.33484,0 0,-47.14806 c 0,0 18.4632,-6.83426 18.4632,-10.6498 0,-3.81551 -19.1054,-5.13758 -19.1054,-5.13758 l -0.37461,-2.14067 c 0,0 10.00759,-0.6455 10.00759,-2.67582 0,-1.98537 -10.38221,-2.67583 -10.38221,-2.67583 l -0.37462,-2.88989 c 0,0 9.09781,-0.0305 9.09781,-2.46176 0,-2.43118 -9.47242,-2.46176 -9.47242,-2.46176 l -0.37462,-3.47857 c 0,0 7.33176,0.0339 7.33176,-1.92661 0,-1.9605 -7.70637,-1.92659 -7.70637,-1.92659 l -0.53517,-43.08081 4.06726,0 0,-1.39143 -4.06726,0 0,-20.87144 2.30121,0 0,-1.39144 -2.30121,0 0,-15.73386 1.71253,0 0,-1.33791 -1.71253,0 -0.42814,-8.88375 -0.48164,0 -0.48165,0 z" />
  </g>
  <path
     inkscape:connector-curvature="0"
     style="fill:#000000;fill-opacity:1;fill-rule:nonzero;stroke:none"
     id="rect4034"
     d="m 26.291357,122.56641 c -8.657501,-0.008 -17.606409,2.44213 -26.049345,8.71245 L 42.616203,141.13537 0,133.78699 c 6.946213,12.97049 25.045306,22.48613 35.805213,26.51137 l 307.368497,0 0,-6.40233 -270.899977,0 c 12.19819,0 -15.06273,-31.30251 -45.982376,-31.32962 z" />
  <g
     id="g4030"
     transform="matrix(0.70403633,0,0,0.70403633,-264.40965,-230.78307)">
    <path
       inkscape:connector-curvature="0"
       style="fill:#000000;fill-opacity:1;stroke:none"
       id="path4018"
       d="m 631.47161,547.00092 c 0,0 0,-20.58185 0,-28.85248 0,-8.27062 4.61397,-17.42132 4.61397,-17.42132 l -1.51244,-10.73854 0.21583,0 2.61729,9.25107 1.98874,-2.08344 0,-2.43067 c 0,0 -0.8951,-1.40271 -0.8951,-3.19518 0,-1.79246 1.09798,-4.29531 3.60084,-4.29531 2.50285,0 4.07936,2.19626 3.67084,4.80726 -0.23432,1.49764 -0.87607,2.23 -0.55586,3.25028 l 3.70521,3.75345 c 0.38276,0.38774 2.56502,1.71505 2.71678,4.71763 0.0609,1.20412 -0.53466,3.19932 -0.53466,3.19932 0,0 0.46036,2.05808 0.85034,3.16737 0.38998,1.10929 1.23209,10.69982 1.25701,14.98215 0,2.56925 0,21.88841 0,21.88841 z" />
    <path
       inkscape:connector-curvature="0"
       style="fill:#000000;fill-opacity:1;stroke:none"
       id="path4020"
       d="m 642.21875,463.4375 c -1.08485,0 -1.96875,0.8839 -1.96875,1.96875 0,0.78945 0.48457,1.4691 1.15625,1.78125 l -0.71875,8.78125 -1.25,0 0,5.1875 -3.34375,0 0,3.84375 1.53125,-1.96875 1.53125,1.84375 1.53125,-1.78125 1.53125,1.875 1.53125,-1.875 1.53125,1.78125 1.53125,-1.84375 1.53125,1.96875 0,-3.84375 -3.375,0 0,-5.1875 -1.25,0 -0.71875,-8.75 c 0.69188,-0.3039 1.1875,-1.00837 1.1875,-1.8125 0,-1.08485 -0.88391,-1.96875 -1.96875,-1.96875 z" />
  </g>
  <path
     inkscape:connector-curvature="0"
     d="m 91.205173,129.73843 c 0.0377,-0.0325 0.0399,-0.0397 0.0219,-0.0734 -0.0234,-0.0436 -0.34686,-0.36776 -0.45731,-0.45823 -0.0415,-0.0339 -0.10785,-0.0918 -0.14747,-0.12845 -0.0684,-0.0633 -0.20336,-0.12882 -0.26528,-0.12882 -0.0158,0 -0.0365,0.01 -0.046,0.021 -0.0348,0.042 0.22391,0.25918 0.30863,0.25918 0.0188,0 0.0475,0.0515 0.0475,0.0854 0,0.037 0.0552,0.15155 0.0882,0.18301 0.0979,0.0933 0.16982,0.1518 0.18675,0.1518 0.0108,0 0.0454,0.028 0.0771,0.0622 0.0677,0.0732 0.12257,0.081 0.18615,0.0263 z m -6.1808,-18.52833 c -0.2012,0.0311 -0.35599,0.29242 -0.64685,0.21561 -0.51897,0.53138 0.70756,0.23179 0.83551,0.64684 -0.40991,0.0163 -0.8374,0.0138 -1.23979,0.10781 -0.38799,0.15425 -0.75705,0.35828 -1.10502,0.59294 -0.72703,0.45686 -1.22124,1.17046 -1.77881,1.80576 -0.28489,0.64711 -0.74379,0.0814 -1.07808,-0.18866 -0.45712,-0.2866 -0.88963,-0.59946 -1.40148,-0.7816 -0.48859,-0.36957 -1.1514,-0.35339 -1.72492,-0.24257 -0.5069,0.10076 -1.00596,0.29597 -1.32063,0.7277 -0.50211,0.42436 -0.6751,1.0738 -0.75465,1.69796 -0.0277,0.37301 -0.0436,1.42751 0.53903,1.15892 0.0829,-0.55452 -0.0238,-1.12455 0.13477,-1.671 0.20729,-0.49067 0.63139,-0.94051 1.15892,-1.07807 0.49111,-0.27646 0.51024,0.48403 0.0539,0.53903 -0.6102,0.23198 -0.88635,0.93085 -0.94332,1.53625 -0.0606,0.46839 -0.12149,1.00851 0.13476,1.42844 0.25952,0.40501 0.25937,-0.19894 0.48513,-0.1078 0.37296,-0.49827 0.27849,0.23572 0.40428,0.53903 0.67345,0.42483 0.24942,-0.66138 0.64683,-0.8894 0.11077,-0.30014 0.11874,-1.28905 0.566,-1.02417 0.5485,0.43089 1.02469,0.95485 1.50929,1.4554 0.20993,0.41875 0.60547,0.65139 1.05111,0.80854 -0.2241,0.38305 0.2321,0.95187 -0.0808,1.23979 -0.22791,-0.0319 -0.93216,0.5024 -0.35038,0.26952 0.24157,0.16492 0.85425,0.39682 0.59294,0.64683 -0.46657,0.0501 -0.91043,0.19735 -1.34758,0.37733 -0.49286,0.10597 -0.91603,0.41089 -1.37454,0.53904 -0.48173,-0.2191 -0.94733,-0.48645 -1.42844,-0.70075 -0.51389,-0.25169 -1.17285,-0.21878 -1.61711,0.16171 -0.46588,0.31351 -0.49971,0.92644 -0.43122,1.42844 0.17912,0.79774 0.28423,1.60963 0.59293,2.37176 0.14261,0.36286 0.26584,1.25734 0.80856,0.75464 0.0508,-0.78717 -0.15279,-1.57096 -0.26952,-2.3448 -0.0139,-0.3009 -0.10422,-0.63101 -0.027,-0.91635 0.31768,-0.46105 0.91306,-0.20973 1.26673,0.0539 0.42822,0.10801 0.21005,0.36117 0.16172,0.64685 0.0582,0.49251 -0.25576,0.95734 -0.37733,1.42843 -0.20417,0.48848 -0.3339,1.00885 -0.70074,1.4015 -0.11366,0.62245 -0.0954,1.28607 -0.027,1.91357 -0.9849,0.13088 -1.78911,0.9582 -2.80298,0.94331 -0.94899,-0.0289 -1.51356,-1.1608 -0.91636,-1.91357 0.67274,-0.81044 -0.72094,-0.28862 -0.70075,0.26952 -0.44628,0.93749 0.12287,2.29765 1.21283,2.42565 0.42014,0.25213 1.27898,-0.29108 1.42844,0.26952 0.0159,0.93615 0.0865,1.94883 -0.29647,2.82993 -0.19722,0.92317 -1.58696,0.73391 -1.671,1.59015 -0.24289,0.54485 -0.14716,1.53441 -0.19058,2.3037 -0.60898,0.24758 -0.94377,0.61104 -1.48044,0.98441 -0.74975,0.53612 -1.38908,1.28012 -1.5632,2.21005 -0.276,1.12916 0.17165,2.26003 0.18866,3.39592 0.1187,0.96012 -0.0282,1.95362 -0.48513,2.80299 -0.1011,0.45319 -1.60121,1.56195 -0.45818,1.40148 0.93488,-0.39379 1.29357,-1.46785 1.53625,-2.37175 0.17346,-1.32357 -0.0622,-2.65969 0.10781,-3.98886 0.28865,1.06849 0.42679,2.17701 0.45818,3.28812 -0.10916,1.06105 -0.41153,2.22899 -1.32064,2.88383 -0.9063,0.47684 -0.64843,1.63989 -0.8355,2.47957 -0.15619,0.87996 -0.30311,1.75983 -0.56599,2.61431 -0.70575,0.98119 0.46445,1.44189 0.7816,2.21005 -0.27649,0.8474 0.55362,0.80583 1.13198,0.7816 0.7652,0.33219 0.6719,-0.35066 0.43122,-0.83551 0.095,-0.83864 -0.98321,-1.35838 -0.56598,-2.26394 0.21621,-1.58978 1.0243,-3.0075 1.77882,-4.39313 0.39119,-0.47771 0.61735,-1.05346 0.99721,-1.53626 0.49482,-0.54456 0.86018,-1.19907 1.37454,-1.72492 0.3819,-0.68569 0.82389,0.39136 1.23978,-0.24256 0.61973,0.29351 1.15131,0.74157 1.77881,1.02417 0.72456,0.35451 1.47666,0.65206 2.26395,0.83551 1.19649,0.0738 2.41823,-0.0359 3.58458,-0.29648 1.26475,-0.19616 2.49711,-0.56702 3.77325,-0.67379 0.36924,1.24465 0.54568,2.54114 0.86246,3.8002 0.39571,0.88662 0.59639,1.83784 0.70074,2.80298 -0.27575,0.90614 0.75572,0.92304 0.91636,1.59016 -0.27464,0.85296 1.45883,0.93691 1.23978,0.21561 0.0367,0.42069 0.19605,0.90052 0.83551,0.7277 0.8408,0.2471 0.66459,-0.27803 0.37732,-0.80856 -0.47824,-0.80151 -1.59337,-1.22395 -1.53626,-2.3987 -0.24688,-0.85339 -0.31923,-1.73004 -0.29646,-2.61433 -0.40181,-1.4575 -0.63529,-2.96696 -0.70075,-4.47399 0.46411,-0.76256 0.80891,-1.59368 1.23979,-2.37175 0.44791,-0.77813 1.30516,-1.20367 2.12919,-1.48235 0.48558,-0.21284 1.1786,-0.32408 1.59014,0.0539 0.53978,1.00646 1.70368,1.28274 2.72214,1.50931 0.73424,-0.21042 1.25968,0.75864 1.96747,0.29647 -0.27464,-0.15073 -0.96909,-1.44516 -0.26951,-0.86245 0.92387,1.27299 1.22503,-0.83661 0.53903,-1.32064 -0.55262,-0.70516 -1.34906,-1.40745 -1.34758,-2.37176 -0.3147,-0.7337 -0.9146,-1.28841 -1.5093,-1.80577 -0.9441,-0.2469 0.37048,-1.05621 0.53903,-1.56319 0.48937,-0.58106 0.85246,-1.25067 1.26673,-1.88664 0.40424,-0.96205 -0.68954,-0.11475 -0.86245,0.24258 -0.59352,0.62362 0.24971,-0.5155 -0.0741,-0.72096 -0.56872,0.003 -1.26625,1.51056 -1.92031,1.90683 -0.63397,-0.47024 -1.831,-0.0372 -2.69518,0.16171 -0.97507,0.16868 -1.89595,0.53769 -2.82994,0.8355 -0.67386,0.24238 -1.34557,0.49078 -2.02137,0.72771 -0.40163,-1.03744 -0.52045,-2.17735 -0.51208,-3.28812 0.10113,-0.57383 0.28165,-1.17503 0.64683,-1.64406 0.59075,-0.57438 1.42611,-1.12125 2.2909,-0.94331 0.73651,-0.007 1.20476,1.33994 1.91357,0.80856 -0.28612,-0.47857 0.14631,-0.26904 0.48514,-0.29648 0.87577,-0.12877 0.30211,-0.70519 -0.0809,-1.07806 -0.74138,-0.41468 -0.7048,-1.32226 -1.26674,-1.85968 -0.82427,-0.52397 0.10478,-1.15408 0.24257,-1.80576 0.37871,-1.18197 -0.64078,0.0498 -0.97026,0.32342 -0.59695,0.61928 -1.33375,1.02535 -2.15614,1.26673 -0.78126,0.40087 -1.56765,0.79954 -2.39871,1.07807 -0.0502,-0.3238 -0.56426,-0.42303 -0.56599,-0.86246 -0.10755,-0.48226 -0.18939,-0.99311 -0.26951,-1.48234 -0.017,-0.45516 -0.21229,-1.00279 0.18866,-1.34759 0.39235,-0.50762 0.90209,-0.91959 1.45539,-1.23978 0.25709,-0.0489 0.55305,-0.0595 0.78161,-0.24256 -0.0577,-0.34032 0.0692,-0.83824 -0.21562,-1.15893 -0.24152,-0.38871 -0.62102,-0.78025 -1.13197,-0.64684 -0.56703,0.21999 -1.09939,0.5448 -1.6171,0.86246 -0.33384,-0.0441 -0.79,0.13002 -0.97027,-0.24257 -0.15053,-0.34609 -0.31794,-0.59895 -0.75464,-0.64684 -0.60568,-0.11567 -0.21817,-0.21269 -0.43123,-0.56599 0.0223,-0.57485 -0.0893,-1.18285 0.13475,-1.72491 0.30502,-0.47278 0.83616,-0.77431 1.13198,-1.26673 0.30468,-0.48335 0.69309,-0.91406 0.94331,-1.42845 0.13929,-0.50786 0.003,-1.04928 0.13476,-1.56321 0.0662,-0.50279 0.35915,-0.97703 0.8355,-1.18587 0.52217,-0.39832 0.70738,0.23913 0.70075,0.64685 0.0512,0.73708 1.04098,0.28337 0.72769,-0.29648 0.21175,0.23849 0.32176,0.19334 0.13476,-0.10781 -0.2594,-0.32003 -3.9e-4,-0.19689 0.18866,-0.0539 0.39543,0.51158 0.1012,-0.36687 -0.1078,-0.51208 0.42599,-0.0875 0.47542,-0.54713 0.13476,-0.80855 -0.29981,0.10289 -0.24293,-0.0967 -0.35038,-0.32342 -0.1234,-0.35524 -0.29149,0.0172 -0.43123,-0.13476 -0.1563,-0.33935 -0.4558,-0.12587 -0.61989,-0.18867 -0.082,-0.0602 -0.14854,-0.0912 -0.21561,-0.0808 z m -7.86992,4.09666 c 0.5235,0.25458 -0.22505,0.53229 -0.35038,0.80855 -0.18747,0.26175 0.12215,-0.81717 0.35038,-0.80855 z m 3.28811,4.5279 c 0.1113,-0.0563 0.27348,-0.0163 0.21562,0.24256 0.0479,0.12578 -0.0615,0.0742 -0.13476,0.0809 -0.25454,-0.0989 -0.19215,-0.2671 -0.0809,-0.32342 z m 0.80856,4.87826 c 0.25865,-0.008 0.51242,0.009 0.75465,0.10781 0.51316,0.16253 0.49756,0.85022 0.7277,1.26673 0.2862,0.52944 0.17411,1.11172 -0.0539,1.6171 0.10425,0.65998 0.78836,0.0773 0.75465,-0.35037 0.2144,-0.4091 0.15649,-0.88226 0.10781,-1.32063 0.11187,0.0725 0.37285,0.72431 0.51208,0.99721 0.0123,0.43785 0.60936,0.55152 0.37733,0.99722 -0.7837,0.43925 -2.20479,0.3984 -3.0725,0.18865 -1.42381,-0.2144 -2.83655,-0.49065 -4.28534,-0.48512 -0.19313,-0.55342 -0.25155,-0.7073 0.0809,-1.21284 0.30128,-0.46451 0.79806,-0.71081 1.26674,-0.97026 0.63711,-0.36373 1.33014,-0.62872 2.04833,-0.7816 0.25141,-0.0273 0.52295,-0.046 0.7816,-0.0539 z m -3.20726,6.65709 c 0.30584,-0.0327 0.77029,0.2771 1.05113,0.45818 0.84381,0.63785 1.76137,1.30503 2.85688,1.37454 0.81171,0.0718 1.62575,-0.0511 2.42565,-0.0809 0.42823,0.96633 0.73237,1.97779 1.10503,2.96469 0.008,0.001 -0.43479,0.34901 -0.59294,0.45818 -0.90668,0.63268 -1.98559,0.79886 -3.07251,0.75465 -0.78399,0.0557 -1.56266,-0.0569 -2.3448,-0.0809 -1.38573,-0.009 -2.72446,-0.35765 -4.06971,-0.64684 0.007,-0.11686 0.13779,-0.0347 -0.35037,-0.29647 -0.50317,-0.58088 -0.43968,-1.79435 0.37732,-2.12918 0.98117,-0.46845 1.83943,-1.24937 2.31785,-2.237 -0.007,-0.36695 0.11297,-0.51944 0.29647,-0.53903 z m -4.42009,3.01859 c 0.2587,0.31814 0.39485,1.31305 0.45818,1.88662 -0.056,0.11308 -1.22068,-0.012 -1.45539,0 0.34827,-0.48008 0.18949,-1.58988 0.99721,-1.88662 z m 14.76957,15.92848 c 7e-4,-0.0553 0.008,-0.0574 0.0539,0.0809 0.0289,0.0856 0.0622,0.2237 0.0809,0.29647 0.0185,0.0728 0.0437,0.14458 0.0539,0.16171 0.0505,0.0843 0.24256,0.87466 0.24256,0.99722 0,0.0393 -0.015,0.0429 -0.0539,0 -0.0627,-0.0691 -0.10245,-0.12776 -0.13475,-0.29647 -0.0393,-0.20522 -0.10691,-0.60978 -0.16171,-0.83551 -0.0718,-0.29587 -0.0818,-0.34134 -0.0809,-0.40427 z"
     id="path3162"
     style="fill:#ffb400;fill-opacity:1;fill-rule:evenodd" />
</svg>
