<?xml version="1.0" encoding="UTF-8" standalone="no"?>
<svg width="351" xmlns="http://www.w3.org/2000/svg" viewBox="0 0 351.29238 160.28897" version="1.1" height="160">
<defs>
<clipPath id="b">
<path d="m48.3 68.8h38.6v-19.5h11.2v-28.2h-50.7z"/>
</clipPath>
<clipPath id="a">
<rect y="18.4" x="50.1" width="50.7" height="39.1"/>
</clipPath>
</defs>
<path d="m86.5 122a27.2 27.2 0 1 1 34.9 -0.00001" transform="matrix(1.03 0 0 1.03 -26.6 29.1)" stroke="#dc0067" stroke-width="1.65" fill="none"/>
<circle stroke-width="5.06" d="M 103,44 C 103,60.016258 90.016258,73 74,73 57.983742,73 45,60.016258 45,44 45,27.983742 57.983742,15 74,15 c 16.016258,0 29,12.983742 29,29 z" transform="matrix(1.82 0 0 1.84 -.404 -22.9)" stroke="#dc0067" cy="44" cx="74" r="29" fill="none"/>
<circle stroke-width=".925" d="M 96,44 C 96,56.150264 86.150264,66 74,66 61.849736,66 52,56.150264 52,44 52,31.849736 61.849736,22 74,22 c 12.150264,0 22,9.849736 22,22 z" transform="matrix(1.83 0 0 1.86 -1.42 -24.1)" stroke="#dc0067" cy="44" cx="74" r="22" fill="none"/>
<circle stroke-width="3.16" d="M 96,44 C 96,56.150264 86.150264,66 74,66 61.849736,66 52,56.150264 52,44 52,31.849736 61.849736,22 74,22 c 12.150264,0 22,9.849736 22,22 z" clip-path="url(#a)" transform="matrix(1.57 0 0 1.6 125 27.1)" stroke="#dc0067" cy="44" cx="74" r="22" fill="none"/>
<circle stroke-width="1.23" d="M 96,44 C 96,56.150264 86.150264,66 74,66 61.849736,66 52,56.150264 52,44 52,31.849736 61.849736,22 74,22 c 12.150264,0 22,9.849736 22,22 z" clip-path="url(#b)" transform="matrix(1.38 0 0 1.4 85.8 49.8)" stroke="#dc0067" cy="44" cx="74" r="22" fill="none"/>
<path d="m210 114-3.68 3.68h-1.12v36.3h1.16v-4.58h4.47v4.58h57.5v-4.58h4.47v4.58l1.16-0.00035v-36.3l-1.12 0.00036-3.68-3.68-3.68 3.68h-1.1l-3.68-3.68-3.68 3.68h-1.1l-3.68-3.68-3.68 3.68h-1.1l-3.68-3.68-3.68 3.68h-1.1l-3.68-3.68-3.68 3.68h-1.1l-3.68-3.68-3.68 3.68h-1.1l-3.68-3.68-3.68 3.68h-1.1zm-3.68 6.02h7.36v27.6h-7.36zm8.46 0h7.36v27.6h-7.36zm8.46 0h7.36v27.6h-7.36zm8.46 0h7.36v27.6h-7.36zm8.46 0h7.36v27.6h-7.36zm8.46 0h7.36v27.6h-7.36zm8.46 0h7.36v27.6h-7.36zm8.46 0h7.36v27.6h-7.36zm-58.9 0.275v27h6.81v-27zm8.46 0v27h6.81v-27zm8.46 0v27h6.81v-27zm8.46 0v27h6.81v-27zm8.46 0v27h6.81v-27zm8.46 0v27h6.81v-27zm8.46 0v27h6.81v-27zm8.46 0v27h6.81v-27z" fill="#4b4b4b"/>
<path d="m118 25.2v2.11h-1.98v0.704h1.98v1.98c-0.553 0.151-0.968 0.653-0.968 1.25 0 0.601 0.415 1.12 0.968 1.28v1.23l-8.23 31.8v53.3h-7.11v-2.02h1.87v-0.704h-1.87v-2h-0.704v2h-1.87v0.704h1.87v2.02l-4.29 16v19.4h36.5 36.5v-19.4l-4.29-16v-2.02h1.87v-0.704h-1.87v-2h-0.704v2h-1.87v0.704h1.87v2.02h-7.11v-53.3l-8.23-31.8v-1.23c0.553-0.151 0.968-0.675 0.968-1.28 0-0.601-0.415-1.1-0.968-1.25v-1.98h1.98v-0.704h-1.98v-2.11h-0.704v2.11h-1.98v0.704h1.98v2c-0.54 0.159-0.946 0.64-0.946 1.23 0 0.592 0.406 1.09 0.946 1.25v1.25l-8.21 31.8v40.2h-5.08l-2.2-3.83-2.2 3.83h-5.08v-40.2l-8.21-31.8v-1.25c0.54-0.159 0.946-0.662 0.946-1.25 0-0.592-0.406-1.07-0.946-1.23v-2h1.98v-0.704h-1.98v-2.11z" fill="#4b4b4b"/>
<ellipse rx="30.3" ry="30.8" stroke="#dc0067" cy="103" cx="320" stroke-width="1.71" fill="none"/>
<path d="m317 106v6.12h-4.36v6.49h-4.53v8.18h-3.12v3.83h-8.36v23.9h23 23v-23.9h-8.34v-3.83h-3.12v-8.18h-4.53v-6.49h-4.36v-6.12h-2.66-2.66z" fill="#4b4b4b"/>
<ellipse rx="30.3" ry="30.8" stroke="#dc0067" cy="64.8" cx="286" stroke-width="1.71" fill="none"/>
<path d="m286 28.8-0.339 6.25h-1.17v0.942h1.17v11.1h-1.62v0.98h1.62v14.7h-2.83v0.98h2.83l-0.377 30.3s-5.39-0.0239-5.39 1.36 5.12 1.36 5.12 1.36l-0.264 2.45s-6.63 0.0215-6.63 1.73 6.37 1.73 6.37 1.73l-0.226 2.03s-7.31 0.486-7.31 1.88c0 1.43 7.05 1.88 7.05 1.88l-0.264 1.51s-13.5 0.931-13.5 3.62 13 7.5 13 7.5v33.2h3.05 3.05v-33.2s13-4.81 13-7.5-13.5-3.62-13.5-3.62l-0.264-1.51s7.05-0.454 7.05-1.88c0-1.4-7.31-1.88-7.31-1.88l-0.264-2.03s6.41-0.0215 6.41-1.73-6.67-1.73-6.67-1.73l-0.264-2.45s5.16 0.0239 5.16-1.36-5.43-1.36-5.43-1.36l-0.377-30.3h2.86v-0.98h-2.86v-14.7h1.62v-0.98h-1.62v-11.1h1.21v-0.942h-1.21l-0.301-6.25h-0.339-0.339z" fill="#4b4b4b"/>
<path d="m26.3 123c-8.66-0.008-17.6 2.44-26 8.71l42.3 9-42.6-7c6.95 13 25 22.5 35.8 26.5h307v-6.4h-271c12.2 0-15.1-31.3-46-31.3z" fill="#4b4b4b"/>
<g transform="matrix(.704 0 0 .704 -264 -231)" fill="#4b4b4b">
<path d="m631 547v-28.9c0-8.27 4.61-17.4 4.61-17.4l-1.51-10.7h0.216l2.62 9.25 1.99-2.08v-2.43s-0.895-1.4-0.895-3.2c0-1.79 1.1-4.3 3.6-4.3s4.08 2.2 3.67 4.81c-0.234 1.5-0.876 2.23-0.556 3.25l3.71 3.75c0.383 0.388 2.57 1.72 2.72 4.72 0.0609 1.2-0.535 3.2-0.535 3.2s0.46 2.06 0.85 3.17 1.23 10.7 1.26 15v21.9z"/>
<path d="m642 463c-1.08 0-1.97 0.884-1.97 1.97 0 0.789 0.485 1.47 1.16 1.78l-0.719 8.78h-1.25v5.19h-3.34v3.84l1.53-1.97 1.53 1.84 1.53-1.78 1.53 1.88 1.53-1.88 1.53 1.78 1.53-1.84 1.53 1.97v-3.84h-3.38v-5.19h-1.25l-0.719-8.75c0.692-0.304 1.19-1.01 1.19-1.81 0-1.08-0.884-1.97-1.97-1.97z"/>
</g>
<path fill="#ffb400" d="m91.2 130c0.0377-0.0325 0.0399-0.0397 0.0219-0.0734-0.0234-0.0436-0.347-0.368-0.457-0.458-0.0415-0.0339-0.108-0.0918-0.147-0.128-0.0684-0.0633-0.203-0.129-0.265-0.129-0.0158 0-0.0365 0.01-0.046 0.021-0.0348 0.042 0.224 0.259 0.309 0.259 0.0188 0 0.0475 0.0515 0.0475 0.0854 0 0.037 0.0552 0.152 0.0882 0.183 0.0979 0.0933 0.17 0.152 0.187 0.152 0.0108 0 0.0454 0.028 0.0771 0.0622 0.0677 0.0732 0.123 0.081 0.186 0.0263zm-6.18-18.5c-0.201 0.0311-0.356 0.292-0.647 0.216-0.519 0.531 0.708 0.232 0.836 0.647-0.41 0.0163-0.837 0.0138-1.24 0.108-0.388 0.154-0.757 0.358-1.11 0.593-0.727 0.457-1.22 1.17-1.78 1.81-0.285 0.647-0.744 0.0814-1.08-0.189-0.457-0.287-0.89-0.599-1.4-0.782-0.489-0.37-1.15-0.353-1.72-0.243-0.507 0.101-1.01 0.296-1.32 0.728-0.502 0.424-0.675 1.07-0.755 1.7-0.0277 0.373-0.0436 1.43 0.539 1.16 0.0829-0.555-0.0238-1.12 0.135-1.67 0.207-0.491 0.631-0.941 1.16-1.08 0.491-0.276 0.51 0.484 0.0539 0.539-0.61 0.232-0.886 0.931-0.943 1.54-0.0606 0.468-0.121 1.01 0.135 1.43 0.26 0.405 0.259-0.199 0.485-0.108 0.373-0.498 0.278 0.236 0.404 0.539 0.673 0.425 0.249-0.661 0.647-0.889 0.111-0.3 0.119-1.29 0.566-1.02 0.548 0.431 1.02 0.955 1.51 1.46 0.21 0.419 0.605 0.651 1.05 0.809-0.224 0.383 0.232 0.952-0.0808 1.24-0.228-0.0319-0.932 0.502-0.35 0.27 0.242 0.165 0.854 0.397 0.593 0.647-0.467 0.0501-0.91 0.197-1.35 0.377-0.493 0.106-0.916 0.411-1.37 0.539-0.482-0.219-0.947-0.486-1.43-0.701-0.514-0.252-1.17-0.219-1.62 0.162-0.466 0.314-0.5 0.926-0.431 1.43 0.179 0.798 0.284 1.61 0.593 2.37 0.143 0.363 0.266 1.26 0.809 0.755 0.0508-0.787-0.153-1.57-0.27-2.34-0.0139-0.301-0.104-0.631-0.027-0.916 0.318-0.461 0.913-0.21 1.27 0.0539 0.428 0.108 0.21 0.361 0.162 0.647 0.0582 0.493-0.256 0.957-0.377 1.43-0.204 0.488-0.334 1.01-0.701 1.4-0.114 0.622-0.0954 1.29-0.027 1.91-0.985 0.131-1.79 0.958-2.8 0.943-0.949-0.0289-1.51-1.16-0.916-1.91 0.673-0.81-0.721-0.289-0.701 0.27-0.446 0.937 0.123 2.3 1.21 2.43 0.42 0.252 1.28-0.291 1.43 0.27 0.0159 0.936 0.0865 1.95-0.296 2.83-0.197 0.923-1.59 0.734-1.67 1.59-0.243 0.545-0.147 1.53-0.191 2.3-0.609 0.248-0.944 0.611-1.48 0.984-0.75 0.536-1.39 1.28-1.56 2.21-0.276 1.13 0.172 2.26 0.189 3.4 0.119 0.96-0.0282 1.95-0.485 2.8-0.101 0.453-1.6 1.56-0.458 1.4 0.935-0.394 1.29-1.47 1.54-2.37 0.173-1.32-0.0622-2.66 0.108-3.99 0.289 1.07 0.427 2.18 0.458 3.29-0.109 1.06-0.412 2.23-1.32 2.88-0.906 0.477-0.648 1.64-0.836 2.48-0.156 0.88-0.303 1.76-0.566 2.61-0.706 0.981 0.464 1.44 0.782 2.21-0.276 0.847 0.554 0.806 1.13 0.782 0.765 0.332 0.672-0.351 0.431-0.836 0.095-0.839-0.983-1.36-0.566-2.26 0.216-1.59 1.02-3.01 1.78-4.39 0.391-0.478 0.617-1.05 0.997-1.54 0.495-0.545 0.86-1.2 1.37-1.72 0.382-0.686 0.824 0.391 1.24-0.243 0.62 0.294 1.15 0.742 1.78 1.02 0.725 0.355 1.48 0.652 2.26 0.836 1.2 0.0738 2.42-0.0359 3.58-0.296 1.26-0.196 2.5-0.567 3.77-0.674 0.369 1.24 0.546 2.54 0.862 3.8 0.396 0.887 0.596 1.84 0.701 2.8-0.276 0.906 0.756 0.923 0.916 1.59-0.275 0.853 1.46 0.937 1.24 0.216 0.0367 0.421 0.196 0.901 0.836 0.728 0.841 0.247 0.665-0.278 0.377-0.809-0.478-0.802-1.59-1.22-1.54-2.4-0.247-0.853-0.319-1.73-0.296-2.61-0.402-1.46-0.635-2.97-0.701-4.47 0.464-0.763 0.809-1.59 1.24-2.37 0.448-0.778 1.31-1.2 2.13-1.48 0.486-0.213 1.18-0.324 1.59 0.0539 0.54 1.01 1.7 1.28 2.72 1.51 0.734-0.21 1.26 0.759 1.97 0.296-0.275-0.151-0.969-1.45-0.27-0.862 0.924 1.27 1.23-0.837 0.539-1.32-0.553-0.705-1.35-1.41-1.35-2.37-0.315-0.734-0.915-1.29-1.51-1.81-0.944-0.247 0.37-1.06 0.539-1.56 0.489-0.581 0.852-1.25 1.27-1.89 0.404-0.962-0.69-0.115-0.862 0.243-0.594 0.624 0.25-0.516-0.0741-0.721-0.569 0.003-1.27 1.51-1.92 1.91-0.634-0.47-1.83-0.0372-2.7 0.162-0.975 0.169-1.9 0.538-2.83 0.836-0.674 0.242-1.35 0.491-2.02 0.728-0.402-1.04-0.52-2.18-0.512-3.29 0.101-0.574 0.282-1.18 0.647-1.64 0.591-0.574 1.43-1.12 2.29-0.943 0.737-0.007 1.2 1.34 1.91 0.809-0.286-0.479 0.146-0.269 0.485-0.296 0.876-0.129 0.302-0.705-0.0809-1.08-0.741-0.415-0.705-1.32-1.27-1.86-0.824-0.524 0.105-1.15 0.243-1.81 0.379-1.18-0.641 0.0498-0.97 0.323-0.597 0.619-1.33 1.03-2.16 1.27-0.781 0.401-1.57 0.8-2.4 1.08-0.0502-0.324-0.564-0.423-0.566-0.862-0.108-0.482-0.189-0.993-0.27-1.48-0.017-0.455-0.212-1 0.189-1.35 0.392-0.508 0.902-0.92 1.46-1.24 0.257-0.0489 0.553-0.0595 0.782-0.243-0.0577-0.34 0.0692-0.838-0.216-1.16-0.242-0.389-0.621-0.78-1.13-0.647-0.567 0.22-1.1 0.545-1.62 0.862-0.334-0.0441-0.79 0.13-0.97-0.243-0.151-0.346-0.318-0.599-0.755-0.647-0.606-0.116-0.218-0.213-0.431-0.566 0.0223-0.575-0.0893-1.18 0.135-1.72 0.305-0.473 0.836-0.774 1.13-1.27 0.305-0.483 0.693-0.914 0.943-1.43 0.139-0.508 0.003-1.05 0.135-1.56 0.0662-0.503 0.359-0.977 0.836-1.19 0.522-0.398 0.707 0.239 0.701 0.647 0.0512 0.737 1.04 0.283 0.728-0.296 0.212 0.238 0.322 0.193 0.135-0.108-0.259-0.32-0.00039-0.197 0.189-0.0539 0.395 0.512 0.101-0.367-0.108-0.512 0.426-0.0875 0.475-0.547 0.135-0.809-0.3 0.103-0.243-0.0967-0.35-0.323-0.123-0.355-0.291 0.0172-0.431-0.135-0.156-0.339-0.456-0.126-0.62-0.189-0.082-0.0602-0.149-0.0912-0.216-0.0808zm-7.87 4.1c0.524 0.255-0.225 0.532-0.35 0.809-0.187 0.262 0.122-0.817 0.35-0.809zm3.29 4.53c0.111-0.0563 0.273-0.0163 0.216 0.243 0.0479 0.126-0.0615 0.0742-0.135 0.0809-0.255-0.0989-0.192-0.267-0.0809-0.323zm0.809 4.88c0.259-0.008 0.512 0.009 0.755 0.108 0.513 0.163 0.498 0.85 0.728 1.27 0.286 0.529 0.174 1.11-0.0539 1.62 0.104 0.66 0.788 0.0773 0.755-0.35 0.214-0.409 0.156-0.882 0.108-1.32 0.112 0.0725 0.373 0.724 0.512 0.997 0.0123 0.438 0.609 0.552 0.377 0.997-0.784 0.439-2.2 0.398-3.07 0.189-1.42-0.214-2.84-0.491-4.29-0.485-0.193-0.553-0.252-0.707 0.0809-1.21 0.301-0.465 0.798-0.711 1.27-0.97 0.637-0.364 1.33-0.629 2.05-0.782 0.251-0.0273 0.523-0.046 0.782-0.0539zm-3.21 6.66c0.306-0.0327 0.77 0.277 1.05 0.458 0.844 0.638 1.76 1.31 2.86 1.37 0.812 0.0718 1.63-0.0511 2.43-0.0809 0.428 0.966 0.732 1.98 1.11 2.96 0.008 0.001-0.435 0.349-0.593 0.458-0.907 0.633-1.99 0.799-3.07 0.755-0.784 0.0557-1.56-0.0569-2.34-0.0809-1.39-0.009-2.72-0.358-4.07-0.647 0.007-0.117 0.138-0.0347-0.35-0.296-0.503-0.581-0.44-1.79 0.377-2.13 0.981-0.468 1.84-1.25 2.32-2.24-0.007-0.367 0.113-0.519 0.296-0.539zm-4.42 3.02c0.259 0.318 0.395 1.31 0.458 1.89-0.056 0.113-1.22-0.012-1.46 0 0.348-0.48 0.189-1.59 0.997-1.89zm14.8 15.9c0.0007-0.0553 0.008-0.0574 0.0539 0.0809 0.0289 0.0856 0.0622 0.224 0.0809 0.296 0.0185 0.0728 0.0437 0.145 0.0539 0.162 0.0505 0.0843 0.243 0.875 0.243 0.997 0 0.0393-0.015 0.0429-0.0539 0-0.0627-0.0691-0.102-0.128-0.135-0.296-0.0393-0.205-0.107-0.61-0.162-0.836-0.0718-0.296-0.0818-0.341-0.0809-0.404z" fill-rule="evenodd"/>
</svg>
